<?xml version="1.0" encoding="UTF-8" standalone="no"?>
<!DOCTYPE svg PUBLIC "-//W3C//DTD SVG 1.1//EN" "http://www.w3.org/Graphics/SVG/1.1/DTD/svg11.dtd">
<!-- Created with Vectornator (http://vectornator.io/) -->
<svg height="100%" stroke-miterlimit="10"
 style="fill-rule:nonzero;clip-rule:evenodd;stroke-linecap:round;stroke-linejoin:round;"
 version="1.1" viewBox="0 0 1024 1024" width="100%" xml:space="preserve"
 xmlns="http://www.w3.org/2000/svg" xmlns:vectornator="http://vectornator.io"
 xmlns:xlink="http://www.w3.org/1999/xlink">
<defs/>
<clipPath id="ArtboardFrame">
<rect height="1024" width="1024" x="0" y="0"/>
</clipPath>
<g clip-path="url(#ArtboardFrame)" id="Layer-11" vectornator:layerName="Layer 11" visibility="hidden">
<path d="M209.161 829.368C187.952 830.883 173.417 886.701 194.161 891.368C215.696 896.213 225.29 859.111 235.161 839.368C238.489 832.713 217.25 812.513 209.161 815.368C181.146 825.256 179.57 920.827 214.161 917.368C262.874 912.497 257.819 759.846 220.161 740.368C156.403 707.39 75.3119 972.901 167.161 928.368C232.499 896.689 189.614 694.286 112.161 708.368C24.1738 724.366 24.606 1064.34 104.161 998.368C142.377 966.677 144.573 885.945 150.161 843.368C171.92 677.582 157.257 510.557 129.161 346.368C128.382 341.818 107.966 172.498 61.1609 199.368C-32.8981 253.365-9.46351 691.121 60.1609 748.368C77.1016 762.297 84.0041 710.071 87.1609 688.368C98.5867 609.816 95.5659 525.342 95.1609 446.368C94.4289 303.613 92.5699 163.066 105.161 20.3681C113.337-72.2979 120.61-91.1488 116.161-92.6319C112.422-93.8784 90.3882-26.8324 87.1609-14.6319C78.5995 17.7346 70.5556 50.3259 65.1609 83.3681C50.5017 173.156 12.7557 468.734 78.1609 540.368C93.2347 556.877 99.8286 499.684 101.161 477.368C102.87 448.735 103.494 420.044 104.161 391.368C105.161 348.375 104.371 305.336 106.161 262.368C110.602 155.774 110.717 28.1893 143.161-75.6319C146.578-86.5657 139.943-52.9477 138.161-41.6319C133.276-10.6135 126.991 20.2019 123.161 51.3681C117.32 98.9051 110.86 146.504 109.161 194.368C103.155 363.541 116.803 527.957 165.161 690.368C170.728 709.065 186.563 755.746 197.161 739.368C232.876 684.173 209.925 514.996 213.161 463.368C222.071 321.235 231.384 242.518 267.161 106.368C276.564 70.583 288.874 35.4984 303.161 1.36809C307.022-7.85632 313.217-28.7064 321.161-22.6319C330.615-15.4024 306.147 76.6972 301.161 106.368C292.677 156.855 283.796 207.384 279.161 258.368C268.045 380.643 252.671 541.771 296.161 661.368C299.968 671.838 314.304 646.136 317.161 635.368C323.683 610.787 327.546 585.542 331.161 560.368C336.885 520.506 339.234 480.201 345.161 440.368C364.278 311.883 382.065 216.716 420.161 91.3681C433.196 48.4783 449.028 6.36381 467.161-34.6319C472.177-45.9728 483.102-75.4516 489.161-64.6319C518.931-11.4719 463.696 54.542 452.161 114.368C417.564 293.803 397.179 472.178 432.161 653.368C435.8 672.215 440.331 692.252 452.161 707.368C464.813 723.535 480.651 675.396 485.161 655.368C493.094 620.136 496.709 584.068 502.161 548.368C510.709 492.4 516.29 435.931 527.161 380.368C540.31 313.16 554.742 246.04 574.161 180.368C590.933 123.65 643.875-24.9317 686.161-87.6319C688.668-91.3499 695.836-82.0654 695.161-77.6319C690.89-49.5668 679.6-23.028 672.161 4.36809C658.6 54.3068 643.135 103.798 632.161 154.368C599.387 305.393 586.877 395.172 589.161 551.368C589.968 606.564 574.328 675.17 612.161 715.368C624.877 728.879 626.519 680.732 629.161 662.368C633.79 630.195 635.657 597.683 639.161 565.368C644.657 514.683 648.485 463.769 656.161 413.368C678.996 263.432 707.482 103.725 776.161-33.6319C785.75-52.8106 769.249 8.80797 763.161 29.3681C751.032 70.3303 736.877 110.768 727.161 152.368C692.39 301.247 660.777 466.883 695.161 619.368C697.276 628.747 716.054 612.467 719.161 603.368C726.032 583.246 730.327 562.282 734.161 541.368C741.336 502.232 745.731 462.633 752.161 423.368C780.044 253.103 813.719 87.5602 885.161-70.6319C896.809-96.4237 871.542-15.6625 863.161 11.3681C847.73 61.1376 830.62 110.537 819.161 161.368C784.362 315.735 775.713 399.876 781.161 558.368C782.776 605.359 765.407 672.26 805.161 697.368C820.077 706.789 823.034 665.881 825.161 648.368C829.149 615.527 829.37 582.333 832.161 549.368C836.37 499.661 839.227 449.769 846.161 400.368C855.24 335.678 864.845 270.871 880.161 207.368C899.746 126.167 902.333 25.0409 967.161-27.6319C975.698-34.5684 968.984-5.47977 967.161 5.36809C962.283 34.3927 953.254 62.5741 947.161 91.3681C936.252 142.916 923.096 194.137 916.161 246.368C905.098 329.693 865.596 556.857 937.161 637.368C959.627 662.643 972.527 582.515 977.161 554.368C982.79 520.179 986.223 485.664 991.161 451.368C1011.07 313.112 1046.65 184.055 1079.16 49.3681C1082.88 33.964 1066.49 78.4428 1061.16 93.3681C1046.14 135.464 1029.91 177.246 1018.16 220.368C1002.54 277.717 987.69 335.544 979.161 394.368C957.657 542.672 956.499 666.38 963.161 814.368C964.923 853.5 971.047 892.32 974.161 931.368C975.618 949.643 987.125 999.332 974.161 986.368C953.391 965.598 965.031 928.335 960.161 899.368C951.765 849.433 941.486 799.723 936.161 749.368C921.889 614.396 923.821 525.464 928.161 390.368C928.923 366.655 939.329 342.278 933.161 319.368C929.125 304.378 924.601 349.23 921.161 364.368C912.931 400.578 903.358 436.6 898.161 473.368C890.005 531.071 881.312 589.092 881.161 647.368C880.739 810.187 899.895 880.676 934.161 1033.37C940.617 1062.14 978.513 1128.47 950.161 1120.37C925.324 1113.27 932.446 1071.83 924.161 1047.37C910.096 1005.83 894.963 964.601 883.161 922.368C840.863 771.011 837.484 619.984 807.161 468.368C806.017 462.65 799.42 477.675 798.161 483.368C791.676 512.691 786.927 542.464 784.161 572.368C779.918 618.231 776.264 664.318 777.161 710.368C779.144 812.14 799.121 912.849 815.161 1013.37C818.334 1033.25 826.303 1082.1 808.161 1073.37C780.619 1060.11 776.4 1020.8 765.161 992.368C750.932 956.376 737.014 920.211 725.161 883.368C693.891 786.166 674.574 685.514 650.161 586.368C645.877 568.968 650.049 541.361 633.161 535.368C624.023 532.126 610.523 610.448 609.161 682.368C606.468 824.565 615.54 861.181 641.161 1002.37C648.425 1042.4 680.808 1090.26 657.161 1123.37C645.285 1139.99 631.045 1091.22 623.161 1072.37C608.541 1037.42 594.349 1002.24 582.161 966.368C564.997 915.852 547.82 865.197 535.161 813.368C509.635 708.86 503.084 600.609 486.161 494.368C485.477 490.076 480.104 501.125 479.161 505.368C474.037 528.425 470.171 551.834 468.161 575.368C464.497 618.258 460.994 661.337 462.161 704.368C466.251 855.189 481.502 898.245 512.161 1048.37C520.742 1090.39 562.65 1155.54 525.161 1176.37C499.63 1190.55 484.102 1133.55 471.161 1107.37C453.045 1070.72 435.623 1033.61 421.161 995.368C366.415 850.606 360.247 810.413 330.161 657.368C326.324 637.848 334.735 612.912 321.161 598.368C311.089 587.577 316.53 627.612 316.161 642.368C315.195 681.024 314.836 719.77 317.161 758.368C324.012 872.099 357.36 988.262 354.161 1102.37C353.952 1109.82 351.599 1122.85 344.161 1122.37C299.687 1119.5 283.685 989.034 275.161 954.368" fill="none" opacity="1" stroke="#8b8d5a" stroke-linecap="round" stroke-linejoin="round" stroke-width="300" vectornator:layerName="Curve 1"/>
<path d="M432.161 167.368C381.27 85.1595 362.651-40.7661 249.161-70.6319C158.938-94.3747-92.0539 60.7237-56.8391 166.368C-39.7272 217.704 24.9168 220.319 65.1609 198.368C134.604 160.49 181.174 51.4398 167.161-25.6319C163.32-46.7546 145.445-96.1112 108.161-81.6319C-41.6152-23.4664-124.103 287.817-105.839 426.368C-98.8898 479.086-81.7444 537.059-24.8391 555.368C151.563 612.124 275.361 289.838 254.161 160.368C249.371 131.112 230.69 47.6677 171.161 74.3681C106.303 103.459 35.342 223.957 10.1609 275.368C-66.8324 432.563-107.792 617.136-71.8391 791.368C-59.7212 850.093-31.2114 908.58 29.1609 930.368C252.32 1010.91 336.017 623.424 325.161 484.368C319.956 417.701 319.098 315.953 255.161 296.368C201.277 279.863 128.579 390.558 117.161 407.368C90.2361 447.007 64.8375 488.239 46.1609 532.368C-10.6701 666.65-51.3547 946.913 118.161 1028.37C200.609 1067.99 315.965 999.5 370.161 943.368C476.439 833.295 544.631 517.743 423.161 397.368C370.325 345.008 293.409 453.082 280.161 468.368C251.475 501.467 223.119 535.47 201.161 573.368C128.96 697.981 67.9198 955.032 233.161 1043.37C422.84 1144.77 752.832 835.397 731.161 639.368C721.579 552.693 654.163 421.472 548.161 424.368C464.873 426.644 410.813 496.228 372.161 558.368C265.535 729.79 302.997 1026.28 550.161 1041.37C600.484 1044.44 717.163 1005.83 761.161 988.368C826.431 962.457 932.833 920.3 940.161 834.368C952.589 688.623 632.228 422.49 495.161 535.368C390.779 621.33 443.781 794.969 504.161 885.368C612.668 1047.82 867.605 1091.85 1038.16 991.368C1248.26 867.59 900.723 592.006 762.161 585.368C718.121 583.258 669.932 604.764 653.161 648.368C633.794 698.723 670.901 765.674 697.161 800.368C794.095 928.434 1123.86 997.678 1141.16 762.368C1152.31 610.735 1018.69 416.872 955.161 289.368C924.377 227.583 894.79 119.949 826.161 127.368C774.286 132.976 749.133 242.226 746.161 267.368C737.958 336.755 748.734 402.135 795.161 456.368C848.063 518.165 993.079 569.928 1051.16 485.368C1104.61 407.551 1065.02 270.784 1048.16 192.368C1037.96 144.945 1030.82 96.1445 1012.16 51.3681C891.904-237.248 510.906 295.504 745.161 390.368C771.011 400.836 860.851 400.609 886.161 392.368C1042.56 341.447 974.029 93.2394 919.161-5.63191C904.403-32.2253 885.152-62.4395 856.161-71.6319C787.737-93.3273 688.187-21.7927 643.161 8.36809C528.934 84.8835 448.849 174.937 422.161 314.368C402.546 416.848 414.654 528.56 530.161 558.368C802.821 628.732 776.943 355.354 727.161 191.368C676.491 24.4558 619.868-168.454 407.161-35.6319C228.185 76.1267 128.277 314.623 152.161 521.368C171.927 692.465 384.459 800.893 533.161 701.368C698.864 590.464 527.818 305.479 468.161 189.368C411.158 78.4219 338.212-78.1203 179.161-20.6319C129.247-2.59072 85.0642 30.3736 45.1609 65.3681C0.225794 104.776-39.8757 150.513-72.8391 200.368C-146.956 312.466-187.496 433.799-187.839 569.368C-188.148 691.326-154.07 820.445-71.8391 914.368C81.7671 1089.81 382.682 1060.78 549.161 920.368C749.687 751.237 880.742 429.699 773.161 183.368C724.429 71.7862 651.586-101.721 503.161-106.632C333.306-112.252 149.78 50.1103 49.1609 168.368C-90.9818 333.078-218.709 602.676-107.839 816.368C45.1533 1111.25 761.204 1286.79 961.161 960.368C1161.62 633.123 835.265 417.328 677.161 168.368C603.288 52.0426 524.206-186.894 333.161-128.632C277.16-111.554 229.43-72.7594 184.161-35.6319C-43.6939 151.242-176.082 446.856-77.8391 736.368C36.3597 1072.9 542.569 1268.7 849.161 1058.37C1186.76 826.76 913.032 369.257 772.161 117.368C717.09 18.8968 645.291-170.038 496.161-154.632C339.28-138.425 192.241 32.7716 109.161 150.368C9.71821 291.125-59.0776 464.752-42.8391 640.368C-16.0195 930.417 344.989 1095.62 604.161 1051.37C885.567 1003.32 1072.3 687.36 931.161 422.368C877.883 322.337 766.98 239.603 691.161 158.368C612.582 74.1763 523.386-65.9597 384.161-8.63191C294.898 28.1235 215.29 136.189 176.161 216.368C71.2324 431.375 45.0456 708.372 223.161 892.368C313.31 985.494 449.311 1056.34 581.161 1018.37C682.259 989.256 750.856 892.404 797.161 805.368C903.415 605.65 884.887 409.373 781.161 214.368C753.857 163.036 687.228 36.5138 627.161 5.36809C495.553-62.8728 353.339 108.01 291.161 194.368C123.702 426.95 72.9739 810.777 416.161 906.368C583.65 953.02 863.515 810.63 779.161 601.368C742.11 509.453 648.365 435.651 582.161 367.368C548.517 332.667 517.822 294.994 482.161 262.368C454.96 237.482 430.674 200.468 394.161 195.368C305.942 183.047 251.226 317.135 231.161 364.368C191.321 458.151 122.476 678.631 266.161 728.368C512.049 813.483 636.496 523.869 617.161 328.368C614.686 303.346 613.415 275.356 598.161 255.368C575.546 225.735 525.086 284.221 503.161 314.368C482.045 343.403 462.262 373.797 447.161 406.368C402.742 502.174 363.572 634.335 388.161 741.368C400.088 793.285 484.596 666.984 502.161 624.368C537.139 539.503 525.342 549.756 544.161 460.368C546.312 450.152 542.747 431.112 553.161 430.368C559.133 429.941 554.739 457.61 565.161 510.368C567.184 520.61 571.161 530.368 574.161 540.368" fill="none" opacity="1" stroke="#8b8d5a" stroke-linecap="round" stroke-linejoin="round" stroke-width="300" vectornator:layerName="Curve 2"/>
</g>
<g id="Layer-15" vectornator:layerName="Layer 15" visibility="hidden">
<path d="M466.739 563.075C408.816 563.075 240.727 884.738 340.914 901.456C434.367 917.05 493.582 705.054 502.557 642.153C506.309 615.862 503.476 586.932 503.476 560.316C503.476 545.591 505.313 501.455 505.313 516.18C505.313 599.529 801.86 860.831 875.439 762.609C929.382 690.601 707.956 539.509 655.016 525.375C613.616 514.321 565.49 500.548 522.763 500.548C520.926 500.548 515.609 501.37 517.252 500.548C578.619 469.828 1022.13 397.169 936.055 267.911C831.702 111.196 616.519 387.839 576.032 450.894C572.155 456.932 562.245 478.48 553.989 478.48C478.256 478.48 620.644 144.324 457.554 117.11C327.692 95.441 439.726 335.844 442.86 367.218C443.184 370.463 444.67 398.482 437.349 398.482C386.562 398.482 399.705 294.977 355.609 269.75C311.568 244.553 144.772 165.264 157.229 289.979C169.155 409.387 400.124 421.067 475.923 461.009C484.535 465.547 506.172 477.708 500.721 491.353C496.957 500.773 467.924 490.123 461.228 489.514C393.65 483.363 60.0599 515.08 89.265 632.038C113.649 729.688 406.813 563.238 432.757 544.685" fill="none" opacity="1" stroke="#8b8d5a" stroke-linecap="round" stroke-linejoin="round" stroke-width="148.958" vectornator:layerName="Curve 1"/>
</g>
<g id="Layer-16" vectornator:layerName="Layer 16" visibility="hidden">
<path d="M550.871 392.254C588.985 279.399 830.925 117.986 932.842 238.695" fill="none" opacity="1" stroke="#8b8d5a" stroke-linecap="round" stroke-linejoin="round" stroke-width="112.227" vectornator:layerName="Curve 1"/>
<path d="M333.799 657.993C277.854 713.211 226.049 983.984 357.09 880.516" fill="none" opacity="1" stroke="#8b8d5a" stroke-linecap="round" stroke-linejoin="round" stroke-width="112.227" vectornator:layerName="Curve 2"/>
<path d="M289.081 864.884C293.672 878.479 317.961 882.736 317.961 897.067C317.961 898.438 315.582 898.573 314.235 898.906C305.703 901.011 300.889 875.297 294.67 881.435C277.787 898.099 344.003 901.664 310.508 901.664C300.695 901.664 295.476 887.872 293.739 887.872C282.435 887.872 320.756 908.101 320.756 908.101C320.756 908.101 282.052 902.165 290.012 894.308C290.631 893.698 309.567 906.074 312.372 907.182C319.387 909.951 334.731 903.402 334.731 910.86C334.731 919.979 298.663 902.189 296.534 897.986" fill="none" opacity="1" stroke="#8b8d5a" stroke-linecap="round" stroke-linejoin="round" stroke-width="112.227" vectornator:layerName="Curve 3"/>
<path d="M289.546 890.171C291.748 878.212 318.044 893.552 323.551 904.423C329.292 915.756 288.335 896.75 289.546 890.171Z" fill="none" opacity="1" stroke="#8b8d5a" stroke-linecap="round" stroke-linejoin="round" stroke-width="112.227" vectornator:layerName="Curve 4"/>
<path d="M281.627 808.794C256.03 884.586 306.591 937.038 378.518 889.711" fill="none" opacity="1" stroke="#8b8d5a" stroke-linecap="round" stroke-linejoin="round" stroke-width="112.227" vectornator:layerName="Curve 5"/>
<path d="M278.863 877.41C278.863 903.28 321.895 927.935 334.761 903.179" fill="none" opacity="1" stroke="#8b8d5a" stroke-linecap="round" stroke-linejoin="round" stroke-width="112.227" vectornator:layerName="Curve 6"/>
</g>
<g clip-path="url(#ArtboardFrame)" id="Layer-12" vectornator:layerName="Layer 12" visibility="hidden">
<path d="M547.959 545.811C632.727 713.14 569.03 978.824 533.053 1156.37" fill="none" opacity="1" stroke="#767849" stroke-linecap="round" stroke-linejoin="round" stroke-width="29.7955" vectornator:layerName="Curve 1"/>
</g>
<g id="Layer-12-copy" vectornator:layerName="Layer 12 copy">
<path d="M547.959 545.811C604.838 658.088 594.873 814.648 571.29 959.149" fill="none" opacity="1" stroke="#767849" stroke-linecap="round" stroke-linejoin="round" stroke-width="29.7955" vectornator:layerName="Curve 1"/>
<path d="M563.36 966.708C560.471 975.375 563.694 964.479 562.608 965.204C557.996 968.278 557.164 964.911 557.091 965.204C556.941 965.802 556.314 966.225 556.213 966.834C555.629 970.338 556.719 952.931 557.843 956.301C558.897 959.463 556.087 965.011 556.087 968.464" fill="none" opacity="1" stroke="#767849" stroke-linecap="round" stroke-linejoin="round" stroke-width="1.28137" vectornator:layerName="Curve 2"/>
<path d="M554.708 968.464C557.321 973.69 570.751 988.644 575.271 993.165" fill="none" opacity="1" stroke="#767849" stroke-linecap="round" stroke-linejoin="round" stroke-width="1.28137" vectornator:layerName="Curve 3"/>
<path d="M584.675 961.317C584.675 972.575 578.653 982.894 575.271 993.039" fill="none" opacity="1" stroke="#767849" stroke-linecap="round" stroke-linejoin="round" stroke-width="1.28137" vectornator:layerName="Curve 4"/>
<path d="M556.84 965.58C556.346 966.568 555.795 967.544 555.335 968.464" fill="none" opacity="1" stroke="#767849" stroke-linecap="round" stroke-linejoin="round" stroke-width="1.28137" vectornator:layerName="Curve 5"/>
<path d="M556.589 966.708L556.338 966.834L556.087 966.959L555.837 967.335L555.711 967.586L555.586 967.837L555.335 968.087L555.084 968.464L554.834 968.714L554.959 968.464" fill="none" opacity="1" stroke="#767849" stroke-linecap="round" stroke-linejoin="round" stroke-width="1.28137" vectornator:layerName="Curve 6"/>
<path d="M555.461 968.338C554.948 967.313 556.433 964.763 556.965 963.699" fill="none" opacity="1" stroke="#767849" stroke-linecap="round" stroke-linejoin="round" stroke-width="1.28137" vectornator:layerName="Curve 7"/>
<path d="M555.21 968.464C555.21 966.9 555.958 963.953 557.091 962.821" fill="none" opacity="1" stroke="#767849" stroke-linecap="round" stroke-linejoin="round" stroke-width="1.28137" vectornator:layerName="Curve 8"/>
<path d="M555.461 967.837C554.933 965.727 556.261 962.08 556.714 959.812" fill="none" opacity="1" stroke="#767849" stroke-linecap="round" stroke-linejoin="round" stroke-width="1.28137" vectornator:layerName="Curve 9"/>
<path d="M554.834 968.464C554.834 966.667 556.036 965.035 556.464 963.323" fill="none" opacity="1" stroke="#767849" stroke-linecap="round" stroke-linejoin="round" stroke-width="1.28137" vectornator:layerName="Curve 10"/>
<path d="M578.136 970.613C577.112 971.409 577.351 972.655 577.084 973.994C576.847 975.19 576.582 976.375 576.14 977.515C576.064 977.712 576.288 977.118 576.342 976.913C576.42 976.611 576.453 976.299 576.52 975.994C576.6 975.627 576.682 975.26 576.783 974.898C577.083 973.815 578.014 970.189 579.063 969.726C579.139 969.692 579.054 969.893 579.032 969.973C578.958 970.245 578.795 970.485 578.684 970.745C578.484 971.215 578.281 971.693 578.128 972.18C577.625 973.78 577.193 975.409 576.766 977.029C576.654 977.455 576.418 978.303 576.418 978.303C576.418 978.303 576.6 978.041 576.658 977.894C576.956 977.123 577.25 976.29 577.524 975.493C578.032 974.009 578.697 972.592 579.263 971.131C579.501 970.518 579.748 969.9 579.936 969.27C579.997 969.068 580.255 968.492 580.137 968.668C578.636 970.918 577.617 975.248 577.283 977.909C577.271 978.001 577.404 977.764 577.438 977.678C577.53 977.441 577.65 977.146 577.724 976.898C577.947 976.149 578.183 975.404 578.443 974.667C579.239 972.41 579.989 969.692 581.327 967.688C581.404 967.573 581.159 967.912 581.095 968.036C580.935 968.345 580.788 968.661 580.662 968.985C580.478 969.459 580.323 969.945 580.167 970.429C579.483 972.555 578.53 974.973 578.249 977.215C578.237 977.307 578.36 977.066 578.403 976.983C578.661 976.492 578.511 976.759 578.689 976.204C578.923 975.474 579.135 974.848 579.393 974.096C579.705 973.187 581.129 967.842 582.022 967.148C582.281 966.947 581.728 967.735 581.597 968.036C581.42 968.443 581.316 968.877 581.187 969.302C580.67 971.01 580.227 972.731 579.787 974.459C579.688 974.846 579.454 975.61 579.454 975.61C579.454 975.61 579.594 975.124 579.671 974.884C579.882 974.224 580.03 973.546 580.235 972.884C580.555 971.853 580.878 970.837 581.187 969.804C581.319 969.361 581.436 968.914 581.543 968.468C581.555 968.415 581.821 967.75 581.821 967.75C582.23 968.277 581.54 969.054 581.388 969.704C580.931 971.647 580.381 973.719 580.133 975.695C580.105 975.925 580.288 975.257 580.342 975.031C580.444 974.605 580.531 974.176 580.629 973.749C580.963 972.286 581.223 970.812 581.558 969.349C581.674 968.841 581.836 968.312 582.06 967.843C582.145 967.666 582.25 967.125 582.315 967.31C582.531 967.921 581.835 971.136 581.742 971.881C581.666 972.48 581.566 973.079 581.393 973.657C581.333 973.86 581.262 974.459 581.192 974.259C580.96 973.601 582.32 969.494 582.678 968.423C582.711 968.323 583.084 966.968 583.235 966.987C583.667 967.041 583.199 967.86 583.133 968.292C582.938 969.57 582.936 971.21 582.367 972.399C582.295 972.549 582.383 972.064 582.429 971.905C582.492 971.682 582.571 971.463 582.638 971.241C582.716 970.979 582.782 970.715 582.862 970.453C583.002 969.995 583.793 968.299 583.566 967.844C583.391 967.493 583.308 968.417 583.303 968.438C583.163 969.008 582.984 969.568 582.839 970.137C582.772 970.401 582.581 971.195 582.615 970.924C582.771 969.683 583.135 968.429 583.335 967.187C583.387 966.86 583.5 965.87 583.459 966.199C583.285 967.582 583.393 969.296 582.846 970.577" fill="none" opacity="1" stroke="#767849" stroke-linecap="round" stroke-linejoin="round" stroke-width="1.28137" vectornator:layerName="Curve 11"/>
<path d="M580.118 974.815C579.309 976.505 578.745 978.297 577.961 980.002C577.644 980.693 576.907 981.905 576.802 982.743C576.767 983.023 577.043 982.232 577.15 981.971C577.416 981.319 577.649 980.653 577.9 979.995C578.532 978.334 579.218 976.567 580.327 975.154C580.408 975.051 580.207 975.388 580.157 975.51C580.026 975.826 579.901 976.145 579.786 976.467C579.643 976.865 579.516 977.269 579.383 977.671C578.843 979.313 577.645 981.484 577.62 983.222C577.615 983.53 577.94 982.689 578.037 982.396C578.09 982.237 578.108 982.068 578.161 981.91C578.396 981.207 578.642 980.51 578.865 979.802C579.396 978.113 579.786 975.704 580.937 974.29C581.095 974.097 580.901 974.789 580.844 975.031C580.758 975.397 580.664 975.761 580.581 976.128C580.196 977.832 579.82 979.501 579.32 981.177C579.229 981.481 579.213 982.331 579.018 982.08C578.891 981.916 579.569 980.427 579.621 980.273C580.247 978.449 581.511 976.213 581.748 974.329C581.763 974.206 581.229 974.746 581.184 974.823C580.908 975.295 580.808 975.931 580.666 976.452C580.49 977.095 580.399 977.76 580.232 978.405C580.072 979.026 579.845 979.888 579.475 980.443" fill="none" opacity="1" stroke="#767849" stroke-linecap="round" stroke-linejoin="round" stroke-width="1.28137" vectornator:layerName="Curve 12"/>
<path d="M576.162 980.341C575.423 981.885 575.327 983.799 574.831 985.444C574.484 986.596 574.247 986.996 573.818 988.015C573.752 988.173 573.611 988.663 573.633 988.494C573.869 986.609 575.087 984.251 575.883 982.565C576.278 981.728 576.681 980.893 577.135 980.087C577.195 979.981 577.345 979.681 577.359 979.801C577.433 980.411 576.465 982.203 576.3 982.743C575.739 984.579 575.3 986.449 574.606 988.239C574.527 988.441 574.781 987.843 574.869 987.645C574.972 987.41 575.044 987.162 575.147 986.927C575.424 986.295 575.705 985.665 575.951 985.02C576.453 983.703 577.454 982.048 577.629 980.651C577.664 980.371 577.383 981.16 577.281 981.423C577.135 981.798 577.009 982.181 576.887 982.565C576.434 983.985 576.111 985.437 575.718 986.873C575.592 987.338 575.355 988.271 575.355 988.271C575.355 988.271 575.808 986.989 576.035 986.348C576.427 985.243 576.588 984.794 577.056 983.716C577.221 983.337 577.395 982.962 577.574 982.589C577.65 982.429 577.843 981.942 577.821 982.118C577.583 984.016 576.252 986.06 575.772 987.947C575.751 988.03 575.834 987.787 575.865 987.707C575.957 987.468 576.055 987.231 576.143 986.989C576.244 986.71 576.34 986.429 576.437 986.148C576.747 985.254 577.013 984.048 577.612 983.284C577.69 983.184 577.546 983.528 577.504 983.647C577.417 983.888 577.318 984.125 577.225 984.365C576.985 984.985 576.686 985.571 576.553 986.225C576.527 986.349 576.429 986.713 576.444 986.588C576.548 985.766 576.954 984.521 577.419 983.824C577.558 983.616 577.33 984.317 577.264 984.558C577.123 985.072 576.819 985.603 576.754 986.125" fill="none" opacity="1" stroke="#767849" stroke-linecap="round" stroke-linejoin="round" stroke-width="1.28137" vectornator:layerName="Curve 13"/>
<path d="M573.44 988.532C573.52 988.934 573.49 988.846 573.763 989.451C573.837 989.614 573.923 989.771 574.018 989.922C574.12 990.084 574.404 990.347 574.404 990.347C574.404 990.347 573.879 989.452 573.632 988.996C573.597 988.93 573.591 988.749 573.532 988.795C573.131 989.106 574.197 990.368 574.373 990.594C574.427 990.664 574.465 990.857 574.535 990.803C574.579 990.769 573.67 989.031 573.787 989.266C574.082 989.856 574.328 990.443 574.566 991.058C574.63 991.224 574.703 991.664 574.82 991.529C575.137 991.163 574.655 989.793 574.582 989.428C574.547 989.255 574.557 988.764 574.459 988.911C574.354 989.068 574.706 991.201 574.735 991.205C574.963 991.233 574.913 988.832 574.914 988.78C574.92 988.572 574.905 987.948 574.93 988.155C575.002 988.752 575.043 989.382 575.014 989.985C575.004 990.192 574.821 990.775 574.937 990.602C575.088 990.375 575.377 988.148 575.432 988.155C575.524 988.166 575.282 989.847 575.261 990.016C575.238 990.201 575.111 990.74 575.191 990.572C575.25 990.449 575.665 988.745 575.671 988.75C575.948 988.934 575.609 989.746 575.609 989.746L575.849 988.835C575.849 988.835 576.489 986.156 576.608 984.789C576.866 981.809 576.43 978.369 577.763 975.585C577.881 975.339 577.621 976.113 577.539 976.373C577.436 976.695 577.327 977.015 577.229 977.338C576.829 978.657 576.955 978.281 576.633 979.585C576.553 979.909 576.457 980.231 576.386 980.557C576.359 980.679 576.27 981.032 576.339 980.928C576.765 980.29 576.836 979.044 576.982 978.311C577.102 977.705 577.291 976.755 577.237 976.774C577.059 976.837 576.755 979.614 576.718 979.909C576.674 980.259 576.63 980.609 576.586 980.959C576.573 981.062 576.476 981.342 576.548 981.268C577.208 980.585 577.557 978.978 577.823 978.103C577.903 977.842 577.967 977.576 578.048 977.315C578.073 977.234 578.151 976.991 578.141 977.076C578.008 978.132 577.428 979.316 577.104 980.334C577.014 980.617 576.773 981.47 576.81 981.175C577 979.662 578.317 977.961 576.735 976.774" fill="none" opacity="1" stroke="#767849" stroke-linecap="round" stroke-linejoin="round" stroke-width="1.28137" vectornator:layerName="Curve 14"/>
<path d="M565.263 973.702C563.789 973.21 562.794 971.786 561.759 970.627C561.319 970.135 560.934 969.596 560.509 969.09C560.442 969.011 560.251 968.776 560.285 968.874C561.051 971.046 564.712 974.065 566.405 975.603C566.623 975.801 567.278 976.112 567.014 976.244C566.647 976.427 565.215 975.029 564.552 974.366C563.824 973.637 563.13 972.872 562.453 972.095C561.17 970.621 560.003 969.039 558.618 967.661C558.585 967.628 558.637 967.754 558.664 967.792C558.906 968.124 559.168 968.441 559.42 968.765C559.852 969.321 560.255 969.901 560.717 970.434C562.131 972.065 563.227 973.108 564.915 974.474C565.24 974.737 565.61 974.938 565.957 975.17C566.073 975.247 566.34 975.536 566.304 975.402C566.104 974.635 565.276 974.195 564.776 973.579C564.222 972.895 563.696 972.188 563.156 971.493C561.941 969.929 560.722 968.367 559.545 966.773C559.423 966.608 559.793 967.101 559.923 967.26C560.193 967.589 560.467 967.915 560.741 968.241C561.213 968.803 561.665 969.383 562.161 969.925C563.269 971.135 564.533 972.2 565.827 973.209C566.086 973.41 566.601 973.54 566.56 973.865C566.508 974.277 565.956 973.296 565.665 973C565.219 972.547 564.762 972.105 564.33 971.64C562.673 969.86 561.216 967.647 559.383 966.063C559.283 965.976 559.513 966.295 559.591 966.402C559.807 966.699 560.007 967.009 560.232 967.299C560.583 967.751 560.949 968.191 561.32 968.627C561.824 969.221 562.326 969.817 562.856 970.389C563.154 970.711 565.157 972.548 565.124 972.807C565.072 973.224 564.468 972.281 564.16 971.995C563.712 971.58 563.236 971.195 562.809 970.759C562.16 970.097 561.568 969.381 560.934 968.704C560.369 968.101 559.81 967.491 559.213 966.92C559.151 966.86 559.041 966.774 558.974 966.827C558.845 966.927 559.703 968.194 559.737 968.24C560.015 968.616 562.387 971.624 562.376 971.709C562.36 971.841 562.189 971.519 562.098 971.423C561.876 971.187 561.648 970.956 561.435 970.712C561.136 970.369 560.842 970.021 560.563 969.661C559.725 968.584 558.944 967.463 558.086 966.402C558.021 966.321 557.964 966.165 557.862 966.185C557.552 966.247 558.019 966.799 558.124 967.097C558.371 967.797 558.661 968.317 559.019 968.966C559.163 969.228 559.297 969.496 559.42 969.769C559.477 969.896 559.644 970.273 559.559 970.163C558.828 969.223 558.346 967.964 557.638 966.973C557.43 966.682 556.895 965.892 556.85 966.247C556.741 967.116 557.677 968.539 558.038 969.282C558.149 969.51 558.264 969.735 558.393 969.954C558.437 970.03 558.544 970.25 558.555 970.162C558.637 969.504 557.675 968.206 557.359 967.691C557.236 967.489 557.124 967.28 556.997 967.081C556.949 967.006 556.846 966.785 556.835 966.872C556.75 967.547 557.486 968.483 557.752 969.058C557.873 969.319 557.978 969.588 558.092 969.853C558.139 969.964 558.262 970.304 558.238 970.185C558.14 969.695 557.333 967.75 556.734 967.675C556.466 967.641 556.845 968.206 556.95 968.455C557.221 969.096 557.543 969.721 557.775 970.378C557.812 970.483 557.97 970.716 557.86 970.702C557.858 970.702 556.463 968.331 556.301 968.123C556.255 968.064 556.164 967.908 556.131 967.976C556.083 968.076 557.448 971.027 557.566 971.042C557.581 971.044 556.997 969.894 556.964 969.837C556.736 969.438 556.409 968.663 556.015 968.4C555.766 968.234 556.275 968.94 556.416 969.204C556.585 969.518 556.745 969.838 556.926 970.146C557.026 970.317 557.693 971.56 558.06 971.606C558.426 971.652 557.665 970.981 557.489 970.656C557.303 970.311 557.163 969.944 556.995 969.59C556.963 969.522 556.87 969.319 556.895 969.389C557.215 970.297 557.851 971.176 558.461 971.907C558.602 972.077 558.917 972.622 558.901 972.402C558.857 971.796 558.27 971.047 558.006 970.533C557.864 970.256 557.44 969.428 557.543 969.722C557.837 970.555 558.475 971.352 559.009 972.039C559.199 972.282 559.407 972.511 559.611 972.742C559.748 972.897 560.074 973.381 560.059 973.175C559.998 972.336 558.596 971.333 558.694 970.556C558.71 970.424 558.89 970.737 558.971 970.842C559.143 971.062 559.278 971.309 559.45 971.529C559.832 972.021 560.864 973.589 561.564 973.677C561.828 973.71 561.283 973.226 561.148 972.998C560.52 971.941 560.946 972.651 560.137 971.553C559.954 971.305 559.415 970.552 559.605 970.796C559.843 971.103 561.681 973.561 561.974 973.415C562.17 973.317 560.974 971.503 560.909 971.399C560.799 971.223 560.456 970.71 560.601 970.858C560.902 971.168 563.151 973.682 563.178 973.817C563.231 974.082 562.736 973.498 562.553 973.299C562.093 972.802 561.634 972.304 561.171 971.808C561.081 971.711 560.91 971.391 560.894 971.523C560.78 972.424 564.411 975.491 564.358 975.91C564.321 976.207 563.886 975.539 563.679 975.323C563.454 975.089 563.238 974.848 563.015 974.612C562.499 974.067 561.556 972.713 560.909 972.403C560.665 972.286 561.124 972.9 561.256 973.137C561.393 973.383 561.511 973.641 561.665 973.878C562.149 974.627 562.598 975.143 563.177 975.825C563.368 976.05 563.967 976.699 563.787 976.466C563.015 975.473 562.031 974.619 561.186 973.692C560.878 973.355 560.301 972.242 560.244 972.696C560.162 973.349 561.378 974.771 561.741 975.268C562.344 976.094 562.681 976.327 562.428 976.295C562.198 976.266 561.158 974.655 561.023 974.488C560.746 974.145 560.495 973.783 560.213 973.445C559.93 973.106 559.682 972.185 559.333 972.456C559.165 972.587 559.477 972.86 559.572 973.051C559.904 973.715 560.31 974.327 560.714 974.951C560.906 975.247 561.014 976.056 561.293 975.839C561.516 975.666 561.057 975.321 560.884 975.098C560.406 974.482 559.966 973.844 559.487 973.228C559.36 973.064 558.987 972.595 559.04 972.796C559.275 973.694 560.252 974.8 560.837 975.468C561.081 975.746 561.345 976.006 561.617 976.256C561.767 976.395 562.116 976.776 562.142 976.573C562.203 976.084 557.966 972.581 560.082 973.993" fill="none" opacity="1" stroke="#767849" stroke-linecap="round" stroke-linejoin="round" stroke-width="1.28137" vectornator:layerName="Curve 15"/>
<path d="M559.072 971.043C557.024 969.91 561.393 975.454 561.54 975.87C561.642 976.161 561.178 975.371 561.008 975.113C560.802 974.802 559.859 973.31 559.75 973.136C559.539 972.797 559.34 972.452 559.125 972.116C559.078 972.042 558.934 971.825 558.963 971.908C559.679 973.94 561.265 975.817 562.666 977.392C563.058 977.833 563.47 978.256 563.886 978.674C564.064 978.854 564.265 979.01 564.449 979.184C564.546 979.276 564.71 979.602 564.727 979.47C564.734 979.416 562.863 977.342 562.751 977.214C562.279 976.672 561.835 976.106 561.393 975.538C561.294 975.41 561.57 975.81 561.656 975.947C561.866 976.286 562.057 976.637 562.281 976.967C562.569 977.392 562.871 977.809 563.191 978.211C564.291 979.592 565.492 980.89 566.71 982.166C567.458 982.949 567.683 983.205 567.713 983.17C568.012 982.825 567.261 982.373 566.98 982.012C566.106 980.887 565.254 979.75 564.395 978.613C564.13 978.262 563.846 977.925 563.585 977.57C563.524 977.486 563.389 977.205 563.431 977.3C564.529 979.787 566.839 981.759 568.578 983.781C569.124 984.416 569.631 985.408 570.314 985.944C570.51 986.098 569.995 985.558 569.82 985.38C569.613 985.17 569.417 984.949 569.21 984.739C568.384 983.897 567.581 983.099 566.833 982.181C566.722 982.045 566.335 981.742 566.509 981.764C567.124 981.841 567.367 982.658 567.783 983.116C569.281 984.766 570.734 986.695 572.421 988.153C572.487 988.211 572.315 988.012 572.259 987.945C572.079 987.731 571.902 987.514 571.711 987.311C571.477 987.063 571.218 986.841 570.985 986.593C570.664 986.249 570.364 985.886 570.052 985.534C569.631 985.062 569.193 984.605 568.786 984.121C568.673 983.987 567.979 982.99 567.59 982.653C567.412 982.499 567.883 983.02 568.022 983.209C568.222 983.482 568.406 983.765 568.608 984.036C568.89 984.412 569.174 984.786 569.473 985.148C570.618 986.538 570.5 986.314 571.734 987.628C571.996 987.907 572.263 988.182 572.505 988.478C572.645 988.648 573.011 989.2 572.876 989.026C572.479 988.515 572.041 988.04 571.618 987.551C568.771 984.259 572.673 989.231 573.308 989.582C573.489 989.683 573.127 989.205 572.999 989.042C572.685 988.637 572.335 988.258 572.019 987.852C571.83 987.608 572.621 988.555 572.621 988.555C572.621 988.555 571.748 987.302 571.286 986.693C570.24 985.313 569.127 983.986 568.03 982.645C567.538 982.043 567.041 981.444 566.564 980.83C566.429 980.656 566.01 980.159 566.194 980.282C566.951 980.787 567.348 981.69 567.938 982.383C569.304 983.99 570.81 985.507 572.105 987.172C572.168 987.254 571.951 987.033 571.881 986.956C571.712 986.772 571.555 986.577 571.387 986.392C570.824 985.772 570.271 985.142 569.743 984.492C568.095 982.459 566.556 980.395 565.206 978.15C565.008 977.819 564.819 977.482 564.643 977.138C564.537 976.932 564.27 976.298 564.412 976.482C566.671 979.389 568.771 982.469 571.009 985.404C571.703 986.313 572.424 987.568 573.27 988.385C573.324 988.437 573.213 988.245 573.17 988.185C572.963 987.899 572.737 987.628 572.521 987.35C571.846 986.481 571.136 985.639 570.461 984.77C568.748 982.565 567.176 980.339 565.801 977.911C565.545 977.459 565.282 977.013 565.03 976.559C564.906 976.338 564.792 976.112 564.675 975.887C564.64 975.821 564.535 975.623 564.575 975.686C566.17 978.29 567.914 980.712 569.929 983.009C571.209 984.468 571.429 984.509 572.383 985.953C572.555 986.212 572.807 987.072 572.846 986.764C572.883 986.472 571.566 984.903 571.519 984.84C571.201 984.418 570.871 984.006 570.547 983.589C568.785 981.321 567.198 979.077 565.848 976.537C565.156 975.234 564.977 974.817 565 974.799C565.128 974.699 565.169 975.075 565.262 975.208C565.683 975.809 566.112 976.406 566.543 977C567.146 977.832 567.728 978.68 568.364 979.488C569.965 981.52 571.537 983.571 573.117 985.606C573.216 985.734 572.946 985.33 572.855 985.196C572.681 984.941 572.506 984.687 572.322 984.439C571.806 983.744 571.259 983.071 570.764 982.361C569.227 980.158 567.743 977.941 566.605 975.502C566.515 975.309 566.34 975.12 566.366 974.908C566.389 974.73 566.53 975.225 566.621 975.379C566.996 976.015 567.353 976.664 567.763 977.279C568.511 978.403 570.833 981.534 571.613 982.593C571.97 983.078 572.349 983.547 572.685 984.046C572.876 984.328 573.411 985.195 573.202 984.926C571.866 983.206 570.726 981.282 569.561 979.45C569.181 978.853 568.775 978.274 568.403 977.673C568.27 977.457 567.964 976.762 568.049 977.001C569.195 980.254 571.577 983.183 573.232 986.185C573.261 986.236 574.183 987.942 574.397 987.9C574.771 987.825 574.151 987.174 573.966 986.841C573.371 985.776 572.831 984.679 572.238 983.613C571.05 981.479 569.722 979.416 568.581 977.256C568.093 976.332 567.683 975.323 567.316 974.337C567.232 974.11 567.054 973.432 567.023 973.672C566.942 974.32 567.681 975.357 567.841 975.657C569.027 977.89 570.418 979.955 571.737 982.107C572.008 982.549 572.263 983.001 572.508 983.459C572.663 983.748 573.086 984.636 572.963 984.331C572.068 982.104 570.459 979.951 569.253 977.905C568.734 977.025 568.203 976.153 567.702 975.263C567.468 974.847 567.255 974.419 567.046 973.989C567.006 973.906 566.91 973.645 566.954 973.726C568.34 976.292 570.154 978.603 571.675 981.095C572.111 981.809 572.96 983.352 573.419 984.2C573.567 984.474 573.985 985.305 573.882 985.011C572.741 981.774 570.43 978.912 569.153 975.697C569.055 975.45 568.244 973.328 568.506 972.855C568.557 972.764 568.679 972.981 568.73 973.071C569.024 973.593 569.267 974.141 569.532 974.678C569.851 975.323 570.178 975.964 570.481 976.616C571.521 978.854 572.499 981.109 573.659 983.289C573.889 983.722 574.138 984.144 574.376 984.572C574.536 984.858 574.951 985.75 574.831 985.444C573.455 981.941 571.596 978.64 570.297 975.087C569.968 974.189 569.782 973.242 569.449 972.346C569.37 972.135 569.325 971.606 569.148 971.743C568.795 972.017 569.331 972.622 569.487 973.041C569.726 973.685 569.997 974.317 570.25 974.956C571.478 978.059 573.397 980.956 574.5 984.085C574.525 984.156 574.439 983.948 574.4 983.884C574.161 983.495 573.904 983.116 573.667 982.726C573.297 982.119 572.956 981.497 572.579 980.895C571.022 978.412 569.35 976.004 567.796 973.518C567.342 972.793 566.88 972.073 566.438 971.34C566.346 971.187 566.111 970.706 566.183 970.869C567.433 973.701 569.696 976.293 571.46 978.81C572.145 979.787 572.79 980.792 573.405 981.814C573.542 982.042 573.695 982.26 573.821 982.494C573.865 982.576 573.948 982.843 573.914 982.757C572.895 980.222 571.492 977.868 570.32 975.404C569.872 974.462 569.444 973.51 569.047 972.546C568.899 972.186 568.783 971.811 568.685 971.434C568.669 971.374 568.673 971.197 568.708 971.249C570.488 973.885 571.84 976.955 573.151 979.838C573.401 980.388 573.631 980.948 573.884 981.498C574.033 981.822 574.111 982.659 574.393 982.44C574.565 982.306 573.533 980.2 573.444 980C572.446 977.737 571.311 975.528 570.537 973.172C570.381 972.699 569.788 971.635 570.283 971.698C570.809 971.764 570.706 972.67 570.915 973.157C571.18 973.772 571.412 974.401 571.686 975.011C572.626 977.099 573.577 979.188 574.54 981.267C574.741 981.7 574.852 982.209 575.196 982.541C575.437 982.774 575.06 981.882 574.941 981.568C574.748 981.055 574.531 980.551 574.317 980.047C573.36 977.798 572.293 975.637 571.85 973.212C571.827 973.089 571.815 972.935 571.896 972.841C571.945 972.785 571.97 972.972 571.996 973.042C572.127 973.389 572.254 973.739 572.366 974.092C572.539 974.632 572.685 975.18 572.852 975.722C573.45 977.662 574.04 979.617 574.826 981.491C574.964 981.82 575.29 982.787 575.335 982.433C575.535 980.835 574.139 978.483 573.762 976.965C573.62 976.392 573.511 975.811 573.416 975.228C573.351 974.83 573.268 973.623 573.316 974.023C573.521 975.719 574.08 977.404 574.634 979.02C574.799 979.503 574.961 979.987 575.143 980.464C575.229 980.69 575.268 981.302 575.436 981.128C575.983 980.562 575.17 979.574 574.974 978.812C574.669 977.629 574.314 976.455 574.103 975.251C574.019 974.77 574.001 974.28 573.973 973.792C573.968 973.709 573.963 973.473 574.004 973.545C574.79 974.922 574.971 978.172 575.475 979.816C575.579 980.153 575.708 980.483 575.853 980.804C575.889 980.884 575.977 981.092 576.015 981.013C576.319 980.377 575.333 977.145 575.222 976.333C575.102 975.454 575.062 974.896 575.069 974.055C575.069 973.993 575.1 973.808 575.092 973.87C574.947 975.025 575.37 976.494 575.561 977.631C575.617 977.961 575.804 978.939 575.816 978.604C575.855 977.451 575.514 976.234 575.377 975.098C575.317 974.596 575.231 973.766 575.301 973.206C575.309 973.141 575.352 972.972 575.386 973.028C576.14 974.259 575.859 976.271 576.187 977.646C576.259 977.95 576.254 977.024 576.241 976.712C576.213 976.013 576.097 975.319 576.065 974.619C576.052 974.347 576.035 974.074 576.042 973.801C576.087 972.033 576.537 974.503 576.83 973.523" fill="none" opacity="1" stroke="#767849" stroke-linecap="round" stroke-linejoin="round" stroke-width="1.28137" vectornator:layerName="Curve 16"/>
<path d="M571.208 974.825C571.1 973.674 570.716 973.569 570.628 975.443C570.565 976.794 570.527 978.609 571.074 979.89C571.175 980.127 571.32 979.427 571.352 979.173C571.409 978.719 571.443 978.263 571.461 977.806C571.521 976.297 571.448 975.033 570.591 973.744C570.313 973.326 569.615 972.558 569.309 972.956C568.452 974.068 569.583 978.733 570.008 979.882C570.035 979.956 570.594 981.666 571.313 980.987C572.592 979.778 571.814 974.793 571.209 973.32C571.083 973.014 569.619 970.126 568.755 970.878C567.546 971.93 568.246 975.32 568.497 976.43C568.711 977.381 568.964 978.332 569.337 979.233C569.477 979.573 570.169 981.182 571.058 981.018C572.182 980.81 572.216 978.5 572.21 977.837C572.188 975.361 571.027 972.225 569.519 970.284C569.036 969.662 568.033 968.687 567.049 968.97C564.311 969.758 566.97 976.275 567.793 977.534C568.066 977.951 568.99 979.512 569.97 979.187C571.227 978.771 570.275 975.117 570.065 974.431C569.543 972.722 567.403 967.264 564.78 967.556C562.391 967.821 563.619 973.086 564.375 974.281C564.409 974.335 564.997 975.132 565.409 975.038C566.783 974.725 566.762 972.174 566.646 971.178C566.478 969.727 564.56 965.121 562.766 965.107C561.201 965.095 561.282 970.441 562.686 969.74C564.432 968.868 562.309 963.643 561.022 963.006C559.809 962.406 557.535 967.305 559.668 967.792C560.571 967.999 560.976 964.131 559.253 963.599C557.527 963.066 557.701 968.287 558.533 967.838C560.228 966.922 558.157 962.633 557.376 964.556C557.229 964.919 557.053 965.49 557.144 965.907C557.894 969.351 560.198 964.423 557.824 964.988C556.8 965.232 557.356 968.867 558.556 968.657C559.699 968.456 559.999 966.067 558.797 965.738C556.16 965.017 556.425 970.084 558.207 969.93C560.205 969.758 559.419 965.755 557.761 966.486C556.178 967.185 556.988 971.22 558.647 971.429C560.398 971.649 560.477 966.957 558.772 967.429C557.695 967.727 558.079 972.173 560.183 971.684C563.352 970.949 561.171 966.969 560.278 968.434C559.214 970.177 560.573 972.716 562.545 972.859C563.209 972.907 564.326 972.325 564.16 971.493C564.065 971.019 563.008 970.421 562.6 970.921C561.65 972.088 562.267 974.616 563.416 975.416C565.388 976.786 567.393 972.742 565.511 972.228C564.318 971.902 564.241 973.521 564.181 974.32C564.068 975.826 564.708 977.884 566.457 978.182C567.995 978.443 569.506 975.405 568.073 975.31C564.699 975.087 566.241 980.66 568.37 981.433C570.2 982.098 571.983 977.984 569.368 977.982C568.532 977.982 568.564 979.798 568.587 980.206C568.666 981.583 569.497 984.45 571.411 984.199C571.897 984.136 572.396 983.558 572.663 983.227C573.756 981.872 571.961 979.313 570.634 979.898C569.944 980.202 570.185 982.232 570.223 982.67C570.321 983.801 570.894 987.237 572.699 986.933C575.154 986.521 574.836 983.059 573.806 981.614C573.641 981.382 573.077 980.585 572.617 981.088C571.396 982.427 571.722 985.637 572.298 987.134C572.608 987.942 573.681 988.679 574.505 988.039C577.478 985.729 575.949 978.671 576.404 975.415C576.655 973.618 576.887 973.093 577.588 971.485C577.771 971.064 577.967 970.648 578.183 970.242C578.345 969.939 578.835 969.043 578.732 969.37C577.892 972.04 576.78 974.595 576.102 977.322C575.806 978.514 575.551 979.718 575.336 980.927C575.194 981.724 575.071 982.528 575.033 983.336C574.995 984.153 575.569 984.6 576.16 983.854C576.707 983.165 577.491 981.317 577.753 980.666C579.024 977.504 580.227 973.948 580.654 970.553C580.711 970.098 580.79 969.628 580.701 969.178C580.596 968.653 579.824 969.868 579.611 970.359C579.255 971.181 578.947 972.024 578.668 972.876C577.624 976.065 576.888 979.381 576.246 982.673C576.178 983.019 575.897 983.445 576.114 983.723C576.269 983.923 576.498 983.38 576.624 983.16C576.904 982.67 577.108 982.139 577.32 981.616C577.624 980.865 577.89 980.099 578.17 979.338C579.08 976.865 580.174 974.391 580.807 971.827C580.887 971.504 580.996 971.164 580.931 970.838C580.908 970.723 580.701 970.947 580.653 971.055C580.403 971.616 580.236 972.211 580.058 972.799C579.772 973.743 579.492 974.689 579.261 975.648C578.968 976.863 578.718 978.088 578.487 979.315C578.195 980.865 577.942 982.44 577.959 984.018" fill="none" opacity="1" stroke="#767849" stroke-linecap="round" stroke-linejoin="round" stroke-width="1.28137" vectornator:layerName="Curve 17"/>
<path d="M576.031 993.877C576.18 992.688 576.939 991.579 577.338 990.465C578.149 988.199 579.192 986.103 579.813 983.748C580.828 979.89 581.663 975.823 582.367 971.897C582.733 969.858 582.821 967.747 583.39 965.751" fill="none" opacity="1" stroke="#767849" stroke-linecap="round" stroke-linejoin="round" stroke-width="1.28137" vectornator:layerName="Curve 18"/>
<path d="M575.676 993.456C574.826 992.602 575.887 993.886 575.854 993.792C575.754 993.51 575.831 993.611 575.676 993.456Z" fill="none" opacity="1" stroke="#767849" stroke-linecap="round" stroke-linejoin="round" stroke-width="1.28137" vectornator:layerName="Curve 19"/>
<path d="M584.858 962.548C585.557 964.532 583.737 966.982 583.496 968.902" fill="none" opacity="1" stroke="#767849" stroke-linecap="round" stroke-linejoin="round" stroke-width="1.28137" vectornator:layerName="Curve 20"/>
<path d="M582.312 973.835C581.905 974.884 581.749 976.038 581.337 977.101C580.497 979.268 579.27 981.247 578.531 983.462" fill="none" opacity="1" stroke="#767849" stroke-linecap="round" stroke-linejoin="round" stroke-width="1.28137" vectornator:layerName="Curve 21"/>
<path d="M582.475 973.04C582.1 974.007 582.335 975.123 582.087 976.128C581.251 979.512 579.969 983.848 578.29 986.882" fill="none" opacity="1" stroke="#767849" stroke-linecap="round" stroke-linejoin="round" stroke-width="1.28137" vectornator:layerName="Curve 22"/>
<path d="M583.487 970.469C582.954 974.715 581.469 978.788 580.114 982.845" fill="none" opacity="1" stroke="#767849" stroke-linecap="round" stroke-linejoin="round" stroke-width="1.28137" vectornator:layerName="Curve 23"/>
</g>
<g clip-path="url(#ArtboardFrame)" id="Layer-8" vectornator:layerName="Layer 8">
<path d="M388.169 738.456C395.132 738.456 383.246 752.379 381.169 754.456C379.9 755.725 377.093 757.995 376.169 756.456C373.514 752.03 375.992 748.084 378.169 744.456C378.897 743.243 380.169 740.456 381.169 741.456C386.395 746.681 377.595 762.345 374.169 766.456C372.008 769.05 369.422 769.839 368.169 765.456C367.497 763.103 367.599 758.741 370.169 757.456C370.766 757.158 371.769 756.922 372.169 757.456C373.654 759.436 373.169 765.844 373.169 767.456C373.169 777.599 373.086 793.539 365.169 801.456C362.164 804.461 350.169 808.506 350.169 800.456C350.169 799.261 353.681 794.471 355.169 796.456C359.599 802.362 352.793 823.832 348.169 828.456C345.976 830.649 334.933 835.601 332.169 831.456C330.544 829.018 332.881 821.981 335.169 820.456C339.597 817.504 339.169 827.007 339.169 827.456C339.169 833.709 338.466 839.443 334.169 844.456C333.387 845.368 332.244 845.918 331.169 846.456C319.413 852.334 323.165 833.786 327.169 836.456C331.537 839.367 325.051 851.822 323.169 854.456C322.073 855.99 320.738 859.502 319.169 858.456C316.736 856.833 320.102 851.422 320.169 851.456C322.823 852.783 320.314 865.67 317.169 866.456C312.874 867.529 315.946 860.344 316.169 860.456C317.383 861.062 317.765 868.264 317.169 869.456C317.163 869.468 314.019 873.023 313.169 872.456C312.161 871.783 310.916 863.829 314.169 865.456C314.709 865.725 314.605 873.977 313.169 874.456C311.466 875.023 309.374 869.456 311.169 869.456C312.37 869.456 312.542 874.896 312.169 875.456C311.617 876.284 307.165 878.207 306.169 878.456C301.202 879.698 306.473 874.456 303.169 874.456C302.443 874.456 303.7 880.925 304.169 880.456C305.634 878.991 303.422 872.971 303.169 871.456C302.895 869.812 304.836 866.456 303.169 866.456C300.56 866.456 302.991 872.743 303.169 873.456C303.331 874.103 303.169 876.122 303.169 875.456C303.169 869.655 303.888 863.206 303.169 857.456C302.958 855.769 302.169 852.456 302.169 852.456C302.169 852.456 302.169 856.456 302.169 858.456C302.169 861.122 302.169 863.789 302.169 866.456C302.169 867.456 302.169 870.456 302.169 869.456C302.169 861.679 303.169 854.231 303.169 846.456C303.169 843.456 303.169 837.456 303.169 837.456C303.169 837.456 303.169 838.789 303.169 839.456C303.169 842.689 304.169 845.223 304.169 848.456C304.169 849.789 304.169 853.789 304.169 852.456C304.169 844.22 305.376 835.524 307.169 827.456C307.787 824.677 308.954 820.456 309.169 820.456C310.169 820.456 309.169 822.456 309.169 823.456C309.169 824.789 309.169 826.122 309.169 827.456C309.169 830.122 309.169 835.456 309.169 835.456C309.169 835.456 310.593 830.143 311.169 827.456C311.732 824.828 311.554 822.072 312.169 819.456C312.894 816.378 314.277 813.49 315.169 810.456C315.945 807.819 316.414 805.099 317.169 802.456C317.748 800.429 317.284 797.399 319.169 796.456C320.503 795.789 320.846 799.001 321.169 800.456C322.001 804.2 321.169 809.572 321.169 813.456C321.169 814.122 320.871 816.052 321.169 815.456C324.645 808.505 325.437 798.964 327.169 791.456C327.934 788.143 328.61 784.809 329.169 781.456C329.279 780.798 329.169 778.789 329.169 779.456C329.169 785.017 329.782 790.943 329.169 796.456C329.018 797.822 328.169 801.83 328.169 800.456C328.169 793.083 330.037 792.707 332.169 785.456C334.997 775.843 336.816 765.956 340.169 756.456C341.014 754.062 342.119 751.767 343.169 749.456C343.786 748.099 343.836 744.789 345.169 745.456C346.66 746.201 345.32 748.796 345.169 750.456C344.567 757.077 341.768 763.059 340.169 769.456C339.757 771.105 339.582 772.807 339.169 774.456C338.914 775.478 337.836 778.456 338.169 777.456C342.735 763.76 346.38 749.689 352.169 736.456C353.246 733.994 354.726 731.723 356.169 729.456C357.567 727.259 358.566 723.456 361.169 723.456C363.169 723.456 361.527 727.488 361.169 729.456C360.245 734.537 358.499 737.581 357.169 742.456C356.722 744.096 356.582 745.807 356.169 747.456C355.914 748.478 354.836 751.456 355.169 750.456C360.892 733.287 368.768 717.332 375.169 700.456C378.199 692.467 380.589 684.213 384.169 676.456C384.794 675.102 384.836 671.789 386.169 672.456C387.66 673.201 386.467 675.816 386.169 677.456C384.959 684.112 382.165 690.97 380.169 697.456C378.957 701.397 378.302 705.491 377.169 709.456C376.965 710.172 376.696 711.983 376.169 711.456C373.996 709.283 377.066 705.324 378.169 702.456C379.081 700.086 380.324 697.85 381.169 695.456C386.445 680.508 390.261 665.226 396.169 650.456C397.277 647.688 398.936 645.17 400.169 642.456C400.605 641.496 400.115 639.456 401.169 639.456C402.169 639.456 401.412 641.486 401.169 642.456C400.402 645.524 399.344 648.52 398.169 651.456C396.673 655.195 394.775 658.762 393.169 662.456C387.849 674.691 382.139 686.516 376.169 698.456C374.301 702.191 373.905 707.588 370.169 709.456C369.573 709.754 369.922 708.075 370.169 707.456C370.616 706.34 371.632 705.531 372.169 704.456C374.237 700.319 376.34 695.724 378.169 691.456C378.585 690.487 379.641 687.513 379.169 688.456C372.465 701.864 368.072 718.553 357.169 729.456C356.698 729.927 356.871 728.052 357.169 727.456C357.915 725.965 359.36 724.913 360.169 723.456C361.041 721.887 361.426 720.09 362.169 718.456C364.368 713.618 369.169 705.966 369.169 700.456C369.169 699.254 367.753 702.405 367.169 703.456C366.083 705.41 365.229 707.487 364.169 709.456C362.895 711.822 361.623 714.195 360.169 716.456C356.893 721.551 353.505 729.12 349.169 733.456C348.642 733.983 349.836 732.122 350.169 731.456C350.836 730.122 351.503 728.789 352.169 727.456C353.169 725.456 354.109 723.425 355.169 721.456C359.361 713.671 363.718 706.086 368.169 698.456C368.92 697.168 369.115 695.51 370.169 694.456C370.915 693.71 369.641 696.513 369.169 697.456C368.3 699.194 367.039 700.717 366.169 702.456C362.753 709.289 359.361 716.54 356.169 723.456C355.286 725.37 355.112 727.57 354.169 729.456C353.748 730.299 352.169 732.399 352.169 731.456C352.169 727.568 356.241 724.831 358.169 721.456C363.555 712.03 368.001 701.998 373.169 692.456C377.226 684.966 381.182 677.361 386.169 670.456C391.729 662.758 399.904 657.353 405.169 649.456C414.753 635.08 423.622 619.577 432.169 604.456C440.936 588.945 450.87 574.568 460.169 559.456C463.163 554.591 465.251 550.827 467.169 545.456C467.985 543.17 468.184 540.673 469.169 538.456C469.552 537.594 471.398 535.541 471.169 536.456C469.331 543.809 462.733 550.976 459.169 557.456C452.091 570.325 444.74 583.314 438.169 596.456C432.669 607.456 429.669 619.456 424.169 630.456C419.989 638.817 414.778 646.794 411.169 655.456C409.023 660.606 408.296 665.765 405.169 670.456" fill="none" opacity="1" stroke="#e1cdb2" stroke-linecap="round" stroke-linejoin="round" stroke-width="77.1102" vectornator:layerName="Curve 1"/>
<path d="M482.169 579.456C479.116 600.825 475.717 622.167 472.169 643.456C471.186 649.354 469.884 653.735 469.169 659.456C469.087 660.117 469.169 662.122 469.169 661.456C469.169 654.509 471.982 647.285 473.169 640.456C475.379 627.748 477.756 615.128 480.169 602.456C480.928 598.472 481.374 594.432 482.169 590.456C482.333 589.637 484.169 581.862 484.169 587.456C484.169 595.719 480.668 603.463 479.169 611.456C477.444 620.66 476.631 630.198 475.169 639.456C472.863 654.063 473.775 669.033 470.169 683.456C468.5 690.135 465.787 696.172 463.169 702.456C459.13 712.151 457.897 722.999 453.169 732.456C450.875 737.045 447.623 741.039 445.169 745.456C440.604 753.674 438.688 763.322 434.169 771.456C423.76 790.193 407.473 804.369 396.169 822.456C386.701 837.605 371.314 849.847 357.169 860.456C354.829 862.211 354.509 864.701 352.169 866.456C344.299 872.359 337.319 879.456 327.169 879.456" fill="none" opacity="1" stroke="#e1cdb2" stroke-linecap="round" stroke-linejoin="round" stroke-width="77.1102" vectornator:layerName="Curve 2"/>
<path d="M438.169 660.456C429.82 688.286 425.716 716.491 412.169 742.456C407.116 752.141 402.092 761.256 398.169 771.456C397.099 774.238 393.835 778.456 398.169 778.456" fill="none" opacity="1" stroke="#e1cdb2" stroke-linecap="round" stroke-linejoin="round" stroke-width="77.1102" vectornator:layerName="Curve 3"/>
<path d="M573.169 566.456C568.999 562.286 564.516 558.441 560.169 554.456C559.474 553.819 558.836 553.122 558.169 552.456C557.503 551.789 555.226 550.456 556.169 550.456C558.57 550.456 564.074 554.198 566.169 555.456C567.348 556.163 571.544 556.456 570.169 556.456C563.898 556.456 558.525 551.811 554.169 547.456C553.169 546.456 552.169 545.456 551.169 544.456C550.503 543.789 549.169 541.513 549.169 542.456C549.169 545.128 560.597 556.21 562.169 558.456C566.713 564.947 569.258 572.612 573.169 579.456C576.83 585.862 581.652 590.809 586.169 596.456C588.886 599.851 589.697 604.159 592.169 607.456C596.808 613.641 601.316 619.632 606.169 625.456C608.13 627.808 611.871 631.617 614.169 633.456C615.915 634.853 618.423 635.059 620.169 636.456C624.774 640.14 630.404 646.749 634.169 651.456C640.453 659.31 645.973 667.308 654.169 673.456C660.022 677.846 666.957 681.729 673.169 685.456C682.014 690.763 693.294 692.131 702.169 697.456C710.061 702.191 717.817 707.942 725.169 713.456C726.929 714.776 729.409 715.136 731.169 716.456C735.472 719.683 739.667 725.08 745.169 726.456C747.959 727.153 751.317 726.885 754.169 727.456C759.065 728.435 763.493 731.287 768.169 732.456C771.873 733.382 775.274 736.284 778.169 738.456C781.806 741.183 787.134 743.035 791.169 745.456C797.142 749.039 802.773 748.857 809.169 750.456C813.255 751.477 817.074 753.432 821.169 754.456C824.62 755.318 828.718 753.593 832.169 754.456C843.097 757.188 857.749 754.296 863.169 743.456C864.486 740.823 864.169 732.751 864.169 729.456C864.169 725.836 865.043 720.951 864.169 717.456C861.884 708.315 855.694 700.822 850.169 693.456C847.171 689.458 841.726 686.291 839.169 682.456C837.514 679.973 837.287 675.28 835.169 672.456C832.141 668.418 824.004 665.29 820.169 661.456C818.064 659.351 817.217 655.503 815.169 653.456C813.669 651.956 811.669 650.956 810.169 649.456C807.212 646.499 806.692 640.819 804.169 637.456C802.189 634.815 798.81 631.436 796.169 629.456C791.265 625.777 786.325 621.323 781.169 617.456C779.836 616.456 779.556 614.38 778.169 613.456C776.55 612.376 773.177 611.66 771.169 610.456C767.543 608.28 764.936 603.339 761.169 601.456C747.209 594.476 733.898 584.693 720.169 576.456C712.464 571.833 705.986 565.146 698.169 560.456C691.98 556.742 683.798 553.959 678.169 549.456C675.426 547.261 672.983 544.566 670.169 542.456C665.842 539.21 650.653 534.37 645.169 533.456C638.108 532.279 631.032 534.456 624.169 534.456C619.865 534.456 614.395 535.301 610.169 534.456C600.541 532.53 590.574 529.753 581.169 534.456" fill="none" opacity="1" stroke="#e1cdb2" stroke-linecap="round" stroke-linejoin="round" stroke-width="77.1102" vectornator:layerName="Curve 4"/>
<path d="M571.169 563.456C575.8 563.456 579.514 567.613 583.169 570.456C593.51 578.499 603.383 585.563 615.169 591.456C635.282 601.512 656.11 611.558 677.169 619.456C691.381 624.785 707.685 628.444 721.169 635.456C729.392 639.731 736.458 646.064 743.169 652.456C761.615 670.023 771.778 693.897 786.169 714.456C788.42 717.672 800.873 737.048 805.169 728.456" fill="none" opacity="1" stroke="#e1cdb2" stroke-linecap="round" stroke-linejoin="round" stroke-width="77.1102" vectornator:layerName="Curve 5"/>
<path d="M584.169 423.456C589.389 413.016 602.631 404.133 612.169 397.456C615.556 395.085 615.918 394.406 619.169 392.456C619.808 392.072 621.503 390.789 621.169 391.456C620.311 393.173 615.388 396.508 614.169 397.456C607.629 402.542 600.91 406.737 594.169 411.456C594.026 411.556 586.788 416.535 585.169 415.456C585.115 415.419 592.392 402.816 593.169 401.456C597.03 394.699 600.234 386.794 603.169 379.456C605.45 373.755 607.569 367.496 611.169 362.456C614.274 358.109 618.435 355.19 622.169 351.456C638.157 335.468 657.13 322.355 676.169 310.456C685.233 304.791 695.573 302.187 704.169 296.456C708.285 293.712 711.211 289.425 715.169 286.456C720.428 282.512 728.419 281.65 734.169 278.456C738.392 276.11 742.607 273.167 747.169 271.456C749.732 270.495 751.752 270.665 754.169 269.456C759.672 266.704 765.941 262.494 772.169 261.456C777.617 260.548 782.699 259.823 788.169 258.456C797.45 256.136 804.412 252.456 814.169 252.456C825.91 252.456 837.91 250.708 849.169 248.456C852.88 247.714 857.371 247.456 861.169 247.456C862.503 247.456 866.503 247.456 865.169 247.456C852.796 247.456 840.374 246.456 828.169 246.456C823.608 246.456 819.617 246.9 815.169 247.456C813.846 247.621 812.503 247.456 811.169 247.456C810.503 247.456 808.573 247.754 809.169 247.456C816.361 243.86 832.116 242.456 840.169 242.456C866.34 242.456 914.344 247.155 922.169 278.456C923.282 282.907 921.522 289.399 920.169 293.456C919.555 295.3 918.039 296.717 917.169 298.456C916.836 299.122 916.169 301.201 916.169 300.456C916.169 299.394 920.641 291.456 919.169 291.456C917.679 291.456 917.723 294.072 917.169 295.456C915.813 298.847 912.817 304.808 910.169 307.456C905.668 311.957 900.66 316.965 896.169 321.456C893.867 323.758 892.829 327.328 890.169 329.456C886.434 332.444 881.872 333.679 878.169 336.456C875.218 338.67 870.538 339.614 867.169 340.456C861.529 341.866 855.084 346.507 850.169 349.456C847.057 351.323 843.728 352.897 841.169 355.456C840.503 356.122 839.924 356.89 839.169 357.456C838.573 357.903 836.424 358.456 837.169 358.456C845.856 358.456 855.481 348.751 863.169 345.456C866.497 344.029 868.781 343.133 872.169 342.456C872.9 342.31 874.169 341.456 874.169 341.456C874.169 341.456 871.347 343.983 870.169 345.456C868.223 347.888 863.866 351.838 861.169 353.456C854.808 357.273 846.429 359.283 840.169 363.456C834.859 366.996 829.709 371.132 824.169 374.456C813.068 381.116 802.983 389.73 791.169 394.456C789.377 395.173 788.111 396.97 786.169 397.456C781.661 398.583 776.844 399.521 772.169 400.456C769.286 401.032 766.07 399.972 763.169 400.456C757.08 401.471 751.107 404.268 745.169 405.456C740.889 406.312 736.239 405.828 732.169 407.456C728.023 409.114 724.719 410.546 720.169 411.456C710.67 413.356 701.576 417.104 692.169 419.456C681.6 422.098 670.857 422.318 660.169 424.456C656.331 425.223 651.846 427.985 648.169 429.456C644.037 431.109 639.412 431.607 635.169 432.456C629.693 433.551 624.597 436.099 619.169 437.456C615.335 438.414 611.019 437.493 607.169 438.456C602.474 439.629 597.939 442.263 593.169 443.456C584.21 445.696 575.137 447.386 566.169 449.456C558.581 451.207 560.426 451.73 553.169 452.456C551.843 452.588 550.489 452.267 549.169 452.456C548.126 452.605 545.698 454.399 546.169 453.456C548.445 448.905 554.74 447.959 559.169 445.456C563.848 442.811 568.451 440.03 573.169 437.456C596.961 424.478 620.953 412.564 645.169 400.456C663.305 391.388 680.896 381.241 699.169 372.456C714.514 365.078 730.484 359.078 746.169 352.456C771.873 341.603 796.727 328.861 822.169 317.456C835.92 311.292 849.46 304.687 863.169 298.456C866.785 296.812 874.025 291.242 877.169 290.456C879.577 289.854 880.76 290.66 883.169 289.456" fill="none" opacity="1" stroke="#e1cdb2" stroke-linecap="round" stroke-linejoin="round" stroke-width="77.1102" vectornator:layerName="Curve 6"/>
<path d="M449.169 354.456C447.985 352.68 446.3 351.266 445.169 349.456C443.984 347.56 444.03 342.215 442.169 343.456C439.95 344.935 441.731 348.825 442.169 351.456C443.261 358.007 446.188 364.116 448.169 370.456C449.518 374.771 450.726 381.177 452.169 380.456C453.589 379.746 451.534 374.276 450.169 370.456C447.617 363.309 444.865 356.107 441.169 349.456C440.586 348.405 440.371 346.456 439.169 346.456C438.115 346.456 439.733 348.496 440.169 349.456C441.403 352.17 442.974 354.724 444.169 357.456C446.381 362.511 448.702 367.521 451.169 372.456C451.972 374.061 452.676 375.73 453.169 377.456C453.352 378.097 453.539 380.01 453.169 379.456C451.698 377.249 449.729 369.36 449.169 367.456C444.757 352.454 442.001 335.951 437.169 321.456C436.853 320.507 436.895 323.494 437.169 324.456C438.241 328.207 439.799 331.803 441.169 335.456C445.31 346.499 449.502 358.065 455.169 368.456C456.1 370.162 457.404 371.669 458.169 373.456C458.432 374.069 458.467 376.052 458.169 375.456C457.236 373.59 456.571 366.762 456.169 365.456C453.202 355.813 449.276 346.12 446.169 336.456C438.749 313.371 433.158 290.388 429.169 266.456C426.83 252.422 427.169 238.654 427.169 224.456C427.169 220.122 427.169 215.789 427.169 211.456C427.169 210.456 427.169 207.456 427.169 208.456C427.169 230.957 422.926 254.024 425.169 276.456C425.831 283.069 426.345 289.861 427.169 296.456C427.462 298.795 428.169 301.099 428.169 303.456C428.169 304.122 428.641 305.927 428.169 305.456C426.155 303.442 426.348 300.048 425.169 297.456C422.009 290.504 419.589 283.296 416.169 276.456C411.961 268.039 412.203 256.761 411.169 247.456C409.869 235.75 406.681 223.363 408.169 211.456C409.48 200.973 412.699 191.336 415.169 181.456C417.773 171.04 417.348 157.822 427.169 150.456C427.766 150.009 429.169 148.71 429.169 149.456C429.169 152.437 426.344 154.715 425.169 157.456C422.269 164.224 418.21 171.315 416.169 178.456C414.739 183.463 412.224 189.18 411.169 194.456C410.211 199.245 411.122 204.693 410.169 209.456C410.085 209.875 408.612 215.456 408.169 215.456C406.795 215.456 407.439 212.803 407.169 211.456C406.153 206.375 405.169 200.657 405.169 195.456C405.169 180.694 412.626 163.907 422.169 152.456C423.071 151.373 429.181 142.456 430.169 142.456C432.118 142.456 429.913 152.216 429.169 153.456C425.462 159.635 422.889 166.656 420.169 173.456C419.148 176.008 420.113 179.512 418.169 181.456C417.226 182.399 418.169 178.789 418.169 177.456C418.169 176.122 418.169 174.789 418.169 173.456C418.169 168.102 418.458 165.591 420.169 160.456C424.589 147.198 431.813 140.027 443.169 132.456C445.169 131.122 446.889 129.216 449.169 128.456C452.686 127.284 456.154 130.25 459.169 131.456C467.449 134.768 479.493 139.663 484.169 147.456C486.322 151.043 487.038 155.498 488.169 159.456C488.662 161.182 490.169 164.456 490.169 164.456C490.169 164.456 489.635 163.038 489.169 162.456C487.205 160 485.696 157.205 484.169 154.456C481.345 149.372 475.585 144.135 471.169 140.456C468.911 138.574 454.241 131.42 462.169 127.456C483.783 116.649 493.43 154.759 496.169 168.456C497.107 173.144 498.01 177.817 499.169 182.456C499.503 183.789 499.943 185.1 500.169 186.456C500.279 187.113 500.169 189.122 500.169 188.456C500.169 177.224 489.395 153.485 482.169 145.456C477.046 139.763 468.701 135.519 465.169 128.456C461.787 121.692 471.095 118.006 476.169 119.456C480.675 120.743 479.836 121.678 483.169 124.456C494.304 133.735 493.287 146.279 495.169 159.456C495.878 164.417 497.54 169.42 498.169 174.456C498.335 175.779 497.95 177.141 498.169 178.456C498.292 179.191 499.169 181.201 499.169 180.456C499.169 176.586 494.842 171.523 493.169 168.456C490.671 163.875 488.904 158.899 486.169 154.456C482.071 147.796 476.317 142.091 472.169 135.456C471.749 134.783 468.088 129.078 469.169 127.456C470.757 125.074 478.513 126.509 480.169 127.456C490.962 133.623 495.582 151.694 499.169 162.456C501.014 167.989 504.001 173.034 506.169 178.456C511.74 192.382 515.917 209.433 517.169 224.456C517.893 233.141 519.38 241.77 520.169 250.456C520.473 253.792 520.754 257.132 521.169 260.456C521.293 261.448 521.169 262.456 521.169 263.456C521.169 264.122 521.169 266.122 521.169 265.456C521.169 244.897 513.937 222.631 507.169 203.456C505.156 197.751 503.072 192.165 501.169 186.456C500.528 184.532 500.169 180.456 500.169 180.456C500.169 180.456 501.456 185.136 502.169 187.456C502.978 190.083 503.349 192.832 504.169 195.456C507.009 204.543 509.197 213.088 511.169 222.456C516.41 247.348 518.233 272.282 520.169 297.456C520.849 306.289 521.169 315.611 521.169 324.456C521.169 328.138 521.649 331.811 522.169 335.456C522.264 336.116 522.169 338.122 522.169 337.456C522.169 324.327 517.448 311.371 515.169 298.456C512.804 285.055 509.847 271.842 507.169 258.456C505.629 250.752 504.134 243.171 503.169 235.456C502.839 232.81 503.169 230.122 503.169 227.456C503.169 226.789 502.871 224.859 503.169 225.456C504.157 227.432 504.976 235.487 505.169 236.456C506.375 242.483 507.864 248.45 509.169 254.456C514.99 281.23 520.07 308.166 522.169 335.456C523.049 346.886 524.169 357.912 524.169 369.456C524.169 373.088 525.169 375.888 525.169 379.456C525.169 380.789 525.664 384.694 525.169 383.456C518.666 367.197 514.005 349.989 508.169 333.456C501.943 315.814 494.869 298.267 489.169 280.456C485.657 269.48 484.224 257.759 482.169 246.456C479.605 232.35 475.813 218.558 473.169 204.456C472.282 199.723 472.408 192.933 470.169 188.456C469.748 187.612 468.591 187.299 468.169 186.456C467.871 185.859 468.467 183.859 468.169 184.456C465.855 189.084 467.886 198.433 468.169 201.456C468.764 207.796 469.072 214.183 470.169 220.456C475.796 252.608 486.531 283.81 494.169 315.456C498.742 334.4 502.706 353.488 507.169 372.456C507.725 374.818 508.402 377.154 509.169 379.456C509.929 381.734 511.99 386.456 512.169 386.456C513.112 386.456 513.503 385.122 514.169 384.456" fill="none" opacity="1" stroke="#e1cdb2" stroke-linecap="round" stroke-linejoin="round" stroke-width="77.1102" vectornator:layerName="Curve 7"/>
<path d="M386.169 386.456C382.398 383.627 379.187 380.077 376.169 376.456C374.858 374.882 368.272 366.436 367.169 365.456C363.633 362.313 357.43 363.469 361.169 368.456C363.777 371.933 368.315 373.914 372.169 375.456C373.553 376.009 375.115 378.51 376.169 377.456C377.679 375.947 373.679 373.965 372.169 372.456C366.182 366.468 359.958 360.63 354.169 354.456C351.746 351.871 349.675 348.961 347.169 346.456C345.66 344.947 343.124 344.365 342.169 342.456C341.722 341.561 344.169 342.456 345.169 342.456C347.58 342.456 350.181 343.809 348.169 340.456C341.037 328.569 328.771 319.057 319.169 309.456C315.728 306.014 313.256 301.314 310.169 297.456C307.058 293.566 300.599 289.671 296.169 287.456C294.679 286.71 290.503 284.456 292.169 284.456C293.112 284.456 293.415 285.89 294.169 286.456C296.092 287.898 298.122 289.196 300.169 290.456C306.47 294.333 312.323 297.909 318.169 302.456C320.224 304.054 324.169 304.852 324.169 307.456C324.169 307.91 319.269 302.556 319.169 302.456C317.169 300.456 315.169 298.456 313.169 296.456C305.961 289.247 297.324 284.477 292.169 275.456C290.563 272.645 289.861 269.474 287.169 267.456C286.573 267.009 284.934 265.749 285.169 266.456C287.553 273.606 296.862 279.739 302.169 284.456C306.696 288.48 307.215 290.41 308.169 289.456C308.626 288.999 297.812 279.027 297.169 278.456C289.635 271.759 279.806 268.138 272.169 261.456C269.595 259.203 266.281 254.456 262.169 254.456C260.679 254.456 264.785 255.902 266.169 256.456C268.605 257.43 270.819 258.281 273.169 259.456C273.836 259.789 275.836 260.789 275.169 260.456C271.068 258.405 266.042 256.78 262.169 254.456C258.047 251.982 254.534 248.47 250.169 246.456C247.298 245.131 244.27 244.076 241.169 243.456C240.516 243.325 238.698 242.984 239.169 243.456C240.841 245.127 247.024 244.92 249.169 245.456C250.503 245.789 254.544 246.456 253.169 246.456C247.042 246.456 239.243 242.67 233.169 241.456C230.474 240.917 227.113 241.399 225.169 239.456C224.226 238.513 227.836 239.456 229.169 239.456C229.553 239.456 236.169 240.039 236.169 238.456C236.169 236.629 229.031 236.599 228.169 236.456C224.794 235.893 221.532 235.128 218.169 234.456C217.516 234.325 216.169 234.456 216.169 234.456C216.169 234.456 220.169 234.456 222.169 234.456C225.503 234.456 228.836 234.456 232.169 234.456C232.836 234.456 234.169 234.456 234.169 234.456C234.169 234.456 230.836 234.456 229.169 234.456C225.836 234.456 222.503 234.456 219.169 234.456C209.601 234.456 208.302 232.889 201.169 236.456C198.503 237.789 195.998 239.513 193.169 240.456C192.462 240.691 191.169 241.456 191.169 241.456C191.169 241.456 199.544 238.204 198.169 235.456C196.85 232.817 179.169 241.309 179.169 242.456C179.169 245.777 186.558 238.62 186.169 237.456C184.654 232.91 173.041 240.764 176.169 245.456C180.086 251.33 181.922 237.703 176.169 243.456C171.393 248.232 176.952 254.89 178.169 252.456C179.38 250.035 173.147 248.723 172.169 249.456C169.697 251.31 171.774 259.588 175.169 258.456C178.969 257.189 176.899 246.483 173.169 251.456C170.677 254.779 171.807 268.818 178.169 262.456C180.159 260.466 179.148 252.273 175.169 255.456C169.287 260.161 174.498 269.785 178.169 273.456C178.179 273.465 181.316 277.024 182.169 276.456C184.146 275.138 183.293 265.894 180.169 267.456C179.573 267.754 180.169 268.789 180.169 269.456C180.169 271.122 179.871 272.816 180.169 274.456C181.149 279.845 184.253 286.54 188.169 290.456C188.245 290.532 191.897 293.728 193.169 292.456C197.075 288.55 187.104 278.832 186.169 279.456C182.305 282.032 187.371 293.759 189.169 296.456C190.094 297.843 192.245 300.843 193.169 299.456C195.345 296.192 186.672 282.958 184.169 280.456C182.9 279.186 179.836 276.789 179.169 278.456C176.546 285.013 182.852 294.479 186.169 299.456C188.631 303.149 191.88 307.174 193.169 305.456C196.215 301.395 189.434 292.627 187.169 289.456C186.621 288.689 185.836 288.122 185.169 287.456C184.503 286.789 183.591 284.612 183.169 285.456C180.979 289.837 196.173 305.731 199.169 308.456C200.749 309.891 202.432 311.215 204.169 312.456C204.776 312.889 206.169 314.201 206.169 313.456C206.169 313.328 197.605 304 197.169 303.456C196.704 302.874 196.696 301.983 196.169 301.456C195.642 300.929 194.169 299.71 194.169 300.456C194.169 303.887 204.635 317.559 207.169 320.456C208.101 321.52 209.065 322.572 210.169 323.456C210.751 323.921 212.696 324.983 212.169 324.456C207.785 320.071 201.953 316.442 197.169 312.456C196.445 311.852 196.013 310.034 195.169 310.456C192.271 311.905 196.603 314.523 199.169 317.456C202.14 320.851 206.843 329.456 212.169 329.456C212.915 329.456 210.766 328.903 210.169 328.456C208.661 327.324 207.678 325.587 206.169 324.456C205.573 324.009 204.023 322.725 204.169 323.456C205.241 328.816 210.618 333.855 215.169 336.456C216.645 337.299 220.169 339.155 220.169 337.456C220.169 336.71 218.836 336.789 218.169 336.456C217.503 336.122 215.756 334.836 216.169 335.456C220.256 341.586 228.224 342.511 233.169 347.456C233.696 347.983 231.766 346.903 231.169 346.456C230.415 345.89 229.924 345.021 229.169 344.456C228.928 344.275 223.169 341.372 223.169 342.456C223.169 344.692 227.169 344.456 229.169 345.456C231.458 346.6 249.774 354.666 250.169 355.456C250.784 356.685 247.503 354.789 246.169 354.456C245.523 354.294 244.816 354.617 244.169 354.456C243.446 354.275 241.503 353.122 242.169 353.456C252.023 358.383 263.208 359.475 273.169 364.456C274.908 365.325 278.169 367.456 278.169 367.456C278.169 367.456 275.503 366.122 276.169 366.456C285.23 370.986 296.322 374.994 306.169 377.456C309.267 378.23 312.988 377.82 316.169 378.456C321.221 379.466 326.209 382.216 331.169 383.456C336.914 384.892 340.061 390.412 345.169 392.456C352.603 395.429 360.43 399.36 368.169 402.456C378.991 406.784 389.832 408.188 401.169 410.456C406.584 411.539 411.546 413.519 417.169 414.456C424.338 415.651 430.76 419.456 438.169 419.456C439.836 419.456 443.915 420.946 443.169 419.456C442.042 417.201 429.132 410.513 427.169 409.456C417.963 404.498 408.981 400.202 400.169 394.456C392.407 389.393 385.711 382.842 378.169 377.456C365.441 368.364 349.359 366.261 335.169 360.456C323.382 355.634 312.926 348.265 301.169 343.456C293.218 340.203 283.586 338.259 275.169 336.456C268.824 335.096 268.064 336.738 263.169 332.456C258.761 328.599 257.283 322.127 254.169 317.456C249.176 309.966 242.832 305.167 236.169 299.456C234.193 297.761 232.796 295.489 231.169 293.456C229.991 291.983 227.169 291.341 227.169 289.456C227.169 286.749 231.098 287.456 232.169 287.456" fill="none" opacity="1" stroke="#e1cdb2" stroke-linecap="round" stroke-linejoin="round" stroke-width="77.1102" vectornator:layerName="Curve 8"/>
<path d="M174.169 608.956C176.32 609.673 174.912 604.342 176.169 602.456C176.583 601.836 176.756 603.836 177.169 604.456C178.094 605.843 178.991 607.277 180.169 608.456C181.476 609.763 186.496 610.125 188.169 609.456C193.8 607.204 199.398 592.299 196.169 587.456C191.335 580.205 177.452 585.547 174.169 591.456C167.02 604.325 186.961 621.062 198.169 611.456C200.691 609.295 201.739 605.466 202.169 602.456C202.667 598.97 204.356 594.015 203.169 590.456C201.45 585.299 186.611 572.857 181.169 569.456C179.089 568.155 168.874 563.653 166.169 565.456C150.725 575.752 161.432 621.836 182.169 615.456C193.378 612.007 200.489 592.281 198.169 581.456C197.02 576.093 193.278 571.695 190.169 567.456C187.357 563.62 179.471 550.399 172.169 554.456C160.857 560.74 162.811 590.195 167.169 599.456C169.992 605.453 174.421 613.005 182.169 611.456C189.316 610.026 191.957 603.65 194.169 597.456C199.099 583.653 197.145 565.6 181.169 559.456C178.969 558.61 176.499 558.097 174.169 558.456C166.322 559.663 163.568 567.93 162.169 574.456C159.099 588.782 165.919 612.393 182.169 616.456C194.053 619.427 201.027 603.895 200.169 594.456C199.466 586.723 194.152 582.445 188.169 578.456C185.772 576.857 181.656 573.519 178.169 575.456C172.768 578.457 173.72 584.495 173.169 589.456C171.731 602.404 173.463 614.696 184.169 623.456C190.787 628.87 200.014 627.697 201.169 618.456C202.233 609.947 199.814 601.27 193.169 595.456C190.994 593.552 185.813 591.619 184.169 595.456C181.277 602.205 182.913 611.781 187.169 617.456C187.473 617.86 192.838 623.448 194.169 619.456C198.631 606.072 177.471 576.897 168.169 569.456C166.523 568.139 163.66 568.946 162.169 567.456C161.226 566.513 162.766 564.648 162.169 563.456C160.336 559.789 157.989 563.185 156.169 560.456C154.593 558.092 158.527 558.327 154.169 557.456C152.025 557.027 141.29 561.697 142.169 563.456C143.68 566.477 151.385 560.456 150.169 560.456C148.615 560.456 144.934 564.882 144.169 565.456C137.248 570.646 128.719 574.261 121.169 578.456C119.866 579.18 117.836 579.122 117.169 580.456C116.476 581.842 123.03 580.317 121.169 578.456C120.686 577.972 118.706 579.98 115.169 582.456C113.2 583.834 111.113 585.042 109.169 586.456C108.321 587.073 98.1693 595.643 98.1693 596.456C98.1693 597.201 100.169 595.456 100.169 595.456C100.169 595.456 96.1151 598.726 94.1693 600.456C91.1693 603.122 88.0075 605.618 85.1693 608.456C80.982 612.643 79.5375 613.824 80.1693 614.456C81.3478 615.634 82.5026 611.456 84.1693 611.456C85.9264 611.456 81.0039 619.96 81.1693 620.456C81.4409 621.271 89.2161 623.217 90.1693 623.456C99.8978 625.888 110.523 624.044 120.169 626.456C123.188 627.21 126.157 628.853 129.169 629.456C138.615 631.345 151.386 629.651 160.169 627.456C163.054 626.735 170.258 623.95 171.169 620.456C172.968 613.561 171.777 608.158 174.169 608.956Z" fill="none" opacity="1" stroke="#e1cdb2" stroke-linecap="round" stroke-linejoin="round" stroke-width="77.1102" vectornator:layerName="Curve 9"/>
<path d="M386.169 516.456C383.503 517.789 380.998 519.513 378.169 520.456C376.557 520.993 373.169 521.456 373.169 521.456C373.169 521.456 374.573 520.903 375.169 520.456C377.818 518.47 380.242 517.212 383.169 515.456C384.448 514.689 387.169 513.456 387.169 513.456C387.169 513.456 382.951 517.76 380.169 518.456C372.48 520.378 364.363 523.407 356.169 525.456C345.684 528.077 335.8 532.419 325.169 535.456C322.267 536.285 319.169 536.122 316.169 536.456C312.575 536.855 310.641 538.298 307.169 539.456C302.638 540.966 297.672 540.955 293.169 542.456C268.144 550.797 242.999 560.456 216.169 560.456C207.596 560.456 195.621 560.812 192.169 550.456C191.877 549.579 191.572 542.351 192.169 541.456C194.898 537.362 216.201 537.284 221.169 536.456C224.74 535.861 227.786 533.132 231.169 532.456C237.784 531.133 244.389 528.812 251.169 527.456C258.221 526.045 265.997 526.48 273.169 525.456C277.943 524.774 282.432 522.133 287.169 521.456C292.312 520.721 298.024 521.485 303.169 520.456C310.13 519.064 317.149 517.459 324.169 516.456C334.471 514.984 344.72 512.456 355.169 512.456C356.345 512.456 365.169 511.917 365.169 510.456C365.169 509.081 362.399 510.841 361.169 511.456C356.314 513.883 351.974 516.869 347.169 519.456C336.433 525.237 325.397 530.644 314.169 535.456C298.474 542.182 282.853 548.734 267.169 555.456C249.383 563.078 236.275 566.508 229.169 585.456C228.18 588.093 220.218 604.553 221.169 606.456C224.284 612.684 231.283 609.41 236.169 607.456C247.289 603.008 259.333 592.366 270.169 586.456C297.446 571.578 324.643 557.372 351.169 541.456C359.995 536.161 368.954 531.063 378.169 526.456C381.162 524.96 384.203 523.939 387.169 522.456C388.503 521.789 391.169 520.456 391.169 520.456C391.169 520.456 388.362 521.561 387.169 522.456C384.168 524.707 381.208 527.177 378.169 529.456C371.404 534.53 364.392 538.122 357.169 542.456C335.093 555.701 312.528 568.217 291.169 582.456C283.873 587.32 275.997 591.542 268.169 595.456C265.632 596.725 262.739 597.171 260.169 598.456C258.836 599.122 255.115 601.51 256.169 600.456C262.694 593.931 273.31 589.947 281.169 585.456C291.571 579.512 301.427 572.827 312.169 567.456C320.931 563.075 329.942 559.94 338.169 554.456" fill="none" opacity="1" stroke="#e1cdb2" stroke-linecap="round" stroke-linejoin="round" stroke-width="77.1102" vectornator:layerName="Curve 10"/>
<path d="M561.169 1164.46C560.836 1165.12 560.503 1165.79 560.169 1166.46" fill="none" opacity="1" stroke="#e1cdb2" stroke-linecap="round" stroke-linejoin="round" stroke-width="77.1102" vectornator:layerName="Curve 11"/>
<path d="M-170.392 980.492C-172.718 982.527-175.044 984.563-177.37 986.598" fill="none" opacity="1" stroke="#e1cdb2" stroke-linecap="round" stroke-linejoin="round" stroke-width="77.1102" vectornator:layerName="Curve 12"/>
<path d="M274.448 336.783C281.748 344.084 291.497 348.512 300.615 353.356C302.239 354.218 304.548 353.8 305.848 355.1C306.498 355.75 304.146 355.881 303.232 355.972C301.206 356.175 299.158 356.085 297.126 355.972C293.919 355.794 290.675 355.755 287.531 355.1C279.43 353.413 271.729 350.156 263.981 347.25C261.049 346.151 258.181 344.885 255.259 343.761C254.401 343.431 251.77 342.598 252.642 342.889C266.634 347.553 279.035 357.551 291.892 364.695C295.645 366.78 299.47 368.732 303.232 370.8C305.285 371.93 308.131 372.279 309.337 374.289C309.954 375.317 307.031 375.359 305.848 375.162C303.398 374.753 301.215 373.365 298.87 372.545C295.399 371.33 291.864 370.302 288.404 369.056C281.223 366.471 274.022 363.846 266.598 362.078C263.99 361.457 261.359 360.936 258.748 360.334C257.58 360.064 254.083 359.226 255.259 359.461C268.843 362.178 281.185 370.174 293.637 376.034C297.992 378.083 302.297 380.244 306.72 382.139C308.411 382.864 313.661 384.567 311.954 383.884C295.938 377.478 280.304 370.675 264.853 362.95C264.272 362.66 265.953 363.742 266.598 363.823C268.329 364.039 270.131 363.43 271.831 363.823C273.989 364.32 275.93 365.503 277.937 366.439C280.325 367.554 294.659 375.012 295.381 374.289C296.229 373.442 294.8 371.963 294.509 370.8" fill="none" opacity="1" stroke="#e1cdb2" stroke-linecap="round" stroke-linejoin="round" stroke-width="77.1102" vectornator:layerName="Curve 13"/>
</g>
<g id="Layer-7" vectornator:layerName="Layer 7">
<path d="M558.194 427.359C532.333 282.411 905.426 102.537 963.311 259.972C982.784 312.937 933.047 357.558 893.055 383.307C789.799 449.789 650.798 470.685 531.317 491.451C530.518 491.59 532.916 491.743 533.726 491.804C555.169 493.419 576.447 493.901 597.868 496.347C629.782 499.992 662.213 503.032 693.171 511.937C766.815 533.121 978.563 701.536 887.019 783.324C812.371 850.016 610.085 682.447 567.279 628.737C545.413 601.301 525.477 571.95 511.762 539.608C506.755 527.802 496.788 490.683 501.754 502.506C547.891 612.356 499.688 781.619 424.422 863.725C394.064 896.841 346.603 939.407 296.678 921.94C187.14 883.617 341.28 655.246 376.966 606.509C401.977 572.351 427.969 537.833 457.532 507.362C461.013 503.774 465.155 492.78 468.153 496.77C480.294 512.935 377.873 579.268 374.121 581.794C301.496 630.687 220.947 671.911 131.28 674.161C98.7752 674.977 30.8268 670.813 42.2647 622.238C67.0196 517.105 228.723 477.682 319.176 472.502C353.14 470.558 389.089 471.933 422.93 475.563C434.765 476.832 446.48 479.015 458.256 480.741C464.968 481.725 482.607 487.479 478.566 482.099C455.095 450.852 255.419 423.534 198.238 381.883C152.982 348.919 75.1899 227.498 167.022 196.699C282.575 157.944 376.155 290.198 418.447 374.478C433.311 404.098 445.194 435.052 459.838 464.775C465.826 476.928 480.932 513.6 479.957 500.12C471.471 382.723 332.238 318.363 364.608 170.589C376.273 117.339 431.324 64.328 489.387 88.4525C578.676 125.551 562.501 300.576 551.612 372.941C547.859 397.879 544.602 422.681 537.995 447.075C536.143 453.911 520.733 481.635 522.907 476.45" fill="none" opacity="1" stroke="#d2c1a1" stroke-linecap="round" stroke-linejoin="round" stroke-width="21.0311" vectornator:layerName="Curve 1"/>
</g>
<g id="Layer-9" vectornator:layerName="Layer 9">
<path d="M516.82 401.432C524.588 399.779 498.839 400.196 496.253 400.7C478.932 404.077 463.037 412.097 449.285 422.603C437.687 431.463 432.006 444.861 426.899 457.793C417.195 482.364 417.558 504.085 441.426 519.871C449.559 525.25 468.092 535.498 478.022 534.669C507.514 532.207 551.539 517.67 558.684 484.559C562.993 464.59 561.288 437.091 545.198 421.685C540.558 417.242 536.497 409.242 530.212 406.824C526.196 405.279 521.812 403.914 517.509 403.373C516.276 403.218 512.83 403.658 513.812 402.908C516.009 401.23 514.61 401.902 516.82 401.432Z" fill="none" opacity="1" stroke="#cba45e" stroke-linecap="round" stroke-linejoin="round" stroke-width="41.3681" vectornator:layerName="Curve 1"/>
<path d="M508.532 436.541C523.853 419.114 492.22 429.423 484.503 433.52C468.357 442.092 437.517 482.338 457.073 500.519C472.591 514.946 495.43 508.107 512.423 500.989C518.238 498.553 528.309 496.297 530.824 489.399C534.36 479.698 527.799 461.069 523.283 453.227C521.547 450.212 519.485 447.273 516.832 445C487.623 419.984 440.442 468.423 463.559 493.919C487.021 519.795 542.551 474.57 522.594 451.286C515.905 443.482 503.784 449.739 497.742 454.65C488.69 462.009 481.357 476.445 484.951 488.266C490.746 507.327 522.499 474.942 514.712 461.419C505.661 445.698 471.713 490.55 492.697 486.459C495.978 485.819 499.22 484.966 502.41 483.972C503.478 483.64 504.415 482.989 505.418 482.497" fill="none" opacity="1" stroke="#cba45e" stroke-linecap="round" stroke-linejoin="round" stroke-width="41.3681" vectornator:layerName="Curve 2"/>
</g>
</svg>